<mxfile host="app.diagrams.net" modified="2023-05-06T02:30:18.081Z" agent="Mozilla/5.0 (Windows NT 10.0; Win64; x64) AppleWebKit/537.36 (KHTML, like Gecko) Chrome/113.0.0.0 Safari/537.36" etag="kHOnY638bYtNHM-0YdC6" version="21.2.9" type="github" pages="2">
  <diagram id="R2lEEEUBdFMjLlhIrx00" name="Page-1">
    <mxGraphModel dx="987" dy="391" grid="1" gridSize="10" guides="1" tooltips="1" connect="1" arrows="1" fold="1" page="1" pageScale="1" pageWidth="850" pageHeight="1100" math="0" shadow="0" extFonts="Permanent Marker^https://fonts.googleapis.com/css?family=Permanent+Marker">
      <root>
        <mxCell id="0" />
        <mxCell id="1" parent="0" />
        <mxCell id="WINjAcvW5h-44KgiYsHn-2" value="BRANCH" style="rounded=0;whiteSpace=wrap;html=1;fillColor=#99CCFF;" parent="1" vertex="1">
          <mxGeometry x="310" y="160" width="100" height="30" as="geometry" />
        </mxCell>
        <mxCell id="WINjAcvW5h-44KgiYsHn-3" value="ACCOUNT" style="rounded=0;whiteSpace=wrap;html=1;fillColor=#99CCFF;" parent="1" vertex="1">
          <mxGeometry x="150" y="405" width="100" height="30" as="geometry" />
        </mxCell>
        <mxCell id="WINjAcvW5h-44KgiYsHn-4" value="LOAN" style="rounded=0;whiteSpace=wrap;html=1;fillColor=#99CCFF;" parent="1" vertex="1">
          <mxGeometry x="470" y="410" width="100" height="30" as="geometry" />
        </mxCell>
        <mxCell id="WINjAcvW5h-44KgiYsHn-6" value="CUSTOMER" style="rounded=0;whiteSpace=wrap;html=1;fillColor=#99CCFF;" parent="1" vertex="1">
          <mxGeometry x="280" y="620" width="160" height="30" as="geometry" />
        </mxCell>
        <mxCell id="WINjAcvW5h-44KgiYsHn-10" value="BANK" style="rounded=0;whiteSpace=wrap;html=1;fillColor=#99CCFF;" parent="1" vertex="1">
          <mxGeometry x="80" y="175" width="100" height="30" as="geometry" />
        </mxCell>
        <mxCell id="WINjAcvW5h-44KgiYsHn-13" value="Name" style="ellipse;whiteSpace=wrap;html=1;fillColor=#FF9999;" parent="1" vertex="1">
          <mxGeometry x="30" y="130" width="70" height="30" as="geometry" />
        </mxCell>
        <mxCell id="WINjAcvW5h-44KgiYsHn-15" value="Address" style="ellipse;whiteSpace=wrap;html=1;fillColor=#FF9999;" parent="1" vertex="1">
          <mxGeometry x="30" y="215" width="70" height="30" as="geometry" />
        </mxCell>
        <mxCell id="WINjAcvW5h-44KgiYsHn-17" value="Name" style="ellipse;whiteSpace=wrap;html=1;fillColor=#FF9999;" parent="1" vertex="1">
          <mxGeometry x="240" y="120" width="80" height="30" as="geometry" />
        </mxCell>
        <mxCell id="WINjAcvW5h-44KgiYsHn-20" value="Address" style="ellipse;whiteSpace=wrap;html=1;fillColor=#FF9999;" parent="1" vertex="1">
          <mxGeometry x="400" y="120" width="80" height="30" as="geometry" />
        </mxCell>
        <mxCell id="WINjAcvW5h-44KgiYsHn-21" value="EMPLOYEE" style="rounded=0;whiteSpace=wrap;html=1;fillColor=#99CCFF;" parent="1" vertex="1">
          <mxGeometry x="560" y="175" width="90" height="30" as="geometry" />
        </mxCell>
        <mxCell id="WINjAcvW5h-44KgiYsHn-25" value="Name" style="ellipse;whiteSpace=wrap;html=1;fillColor=#FF9999;" parent="1" vertex="1">
          <mxGeometry x="750" y="175" width="70" height="30" as="geometry" />
        </mxCell>
        <mxCell id="WINjAcvW5h-44KgiYsHn-27" value="Age" style="ellipse;whiteSpace=wrap;html=1;fillColor=#FF9999;dashed=1;" parent="1" vertex="1">
          <mxGeometry x="612.5" y="245" width="70" height="30" as="geometry" />
        </mxCell>
        <mxCell id="WINjAcvW5h-44KgiYsHn-29" value="Date_of_join" style="ellipse;whiteSpace=wrap;html=1;fillColor=#FF9999;" parent="1" vertex="1">
          <mxGeometry x="660" y="150" width="90" height="30" as="geometry" />
        </mxCell>
        <mxCell id="WINjAcvW5h-44KgiYsHn-33" value="Account_Balance" style="ellipse;whiteSpace=wrap;html=1;fillColor=#FF9999;" parent="1" vertex="1">
          <mxGeometry x="60" y="460" width="120" height="40" as="geometry" />
        </mxCell>
        <mxCell id="WINjAcvW5h-44KgiYsHn-35" value="Account_Type" style="ellipse;whiteSpace=wrap;html=1;fillColor=#FF9999;" parent="1" vertex="1">
          <mxGeometry y="400" width="110" height="40" as="geometry" />
        </mxCell>
        <mxCell id="WINjAcvW5h-44KgiYsHn-44" value="Loan_Amount" style="ellipse;whiteSpace=wrap;html=1;fillColor=#FF9999;" parent="1" vertex="1">
          <mxGeometry x="535" y="460" width="120" height="40" as="geometry" />
        </mxCell>
        <mxCell id="WINjAcvW5h-44KgiYsHn-45" value="Loan_Type" style="ellipse;whiteSpace=wrap;html=1;fillColor=#FF9999;" parent="1" vertex="1">
          <mxGeometry x="620" y="405" width="110" height="40" as="geometry" />
        </mxCell>
        <mxCell id="WINjAcvW5h-44KgiYsHn-46" value="Customer_Name" style="ellipse;whiteSpace=wrap;html=1;fillColor=#FF9999;" parent="1" vertex="1">
          <mxGeometry x="180" y="660" width="130" height="40" as="geometry" />
        </mxCell>
        <mxCell id="WINjAcvW5h-44KgiYsHn-48" value="Address" style="ellipse;whiteSpace=wrap;html=1;fillColor=#FF9999;" parent="1" vertex="1">
          <mxGeometry x="240" y="720" width="100" height="40" as="geometry" />
        </mxCell>
        <mxCell id="WINjAcvW5h-44KgiYsHn-52" value="Phone" style="ellipse;shape=doubleEllipse;margin=3;whiteSpace=wrap;html=1;align=center;fillColor=#FFD966;" parent="1" vertex="1">
          <mxGeometry x="380" y="720" width="100" height="40" as="geometry" />
        </mxCell>
        <mxCell id="WINjAcvW5h-44KgiYsHn-54" value="Code" style="ellipse;whiteSpace=wrap;html=1;align=center;fontStyle=4;fillColor=#CC99FF;" parent="1" vertex="1">
          <mxGeometry y="175" width="70" height="30" as="geometry" />
        </mxCell>
        <mxCell id="WINjAcvW5h-44KgiYsHn-55" value="Branch_id" style="ellipse;whiteSpace=wrap;html=1;align=center;fontStyle=4;fillColor=#CC99FF;" parent="1" vertex="1">
          <mxGeometry x="320" y="90" width="80" height="30" as="geometry" />
        </mxCell>
        <mxCell id="WINjAcvW5h-44KgiYsHn-56" value="Employee_id" style="ellipse;whiteSpace=wrap;html=1;align=center;fontStyle=4;fillColor=#CC99FF;" parent="1" vertex="1">
          <mxGeometry x="612.5" y="100" width="85" height="30" as="geometry" />
        </mxCell>
        <mxCell id="WINjAcvW5h-44KgiYsHn-58" value="Loan_number" style="ellipse;whiteSpace=wrap;html=1;align=center;fontStyle=4;fillColor=#CC99FF;" parent="1" vertex="1">
          <mxGeometry x="535" y="340" width="120" height="40" as="geometry" />
        </mxCell>
        <mxCell id="WINjAcvW5h-44KgiYsHn-59" value="Account_number" style="ellipse;whiteSpace=wrap;html=1;align=center;fontStyle=4;fillColor=#CC99FF;" parent="1" vertex="1">
          <mxGeometry x="60" y="340" width="120" height="40" as="geometry" />
        </mxCell>
        <mxCell id="WINjAcvW5h-44KgiYsHn-60" value="Customer_Id" style="ellipse;whiteSpace=wrap;html=1;align=center;fontStyle=4;fillColor=#CC99FF;" parent="1" vertex="1">
          <mxGeometry x="410" y="660" width="130" height="40" as="geometry" />
        </mxCell>
        <mxCell id="WINjAcvW5h-44KgiYsHn-62" value="" style="endArrow=none;html=1;rounded=0;entryX=0;entryY=0.5;entryDx=0;entryDy=0;exitX=1;exitY=0.5;exitDx=0;exitDy=0;" parent="1" source="WINjAcvW5h-44KgiYsHn-4" target="WINjAcvW5h-44KgiYsHn-45" edge="1">
          <mxGeometry relative="1" as="geometry">
            <mxPoint x="500" y="430" as="sourcePoint" />
            <mxPoint x="610" y="440" as="targetPoint" />
            <Array as="points" />
          </mxGeometry>
        </mxCell>
        <mxCell id="WINjAcvW5h-44KgiYsHn-64" value="" style="endArrow=none;html=1;rounded=0;entryX=0.5;entryY=0;entryDx=0;entryDy=0;exitX=0.75;exitY=1;exitDx=0;exitDy=0;" parent="1" source="WINjAcvW5h-44KgiYsHn-4" target="WINjAcvW5h-44KgiYsHn-44" edge="1">
          <mxGeometry relative="1" as="geometry">
            <mxPoint x="450" y="440" as="sourcePoint" />
            <mxPoint x="610" y="440" as="targetPoint" />
          </mxGeometry>
        </mxCell>
        <mxCell id="WINjAcvW5h-44KgiYsHn-65" value="" style="endArrow=none;html=1;rounded=0;exitX=0.75;exitY=0;exitDx=0;exitDy=0;entryX=0.5;entryY=1;entryDx=0;entryDy=0;" parent="1" source="WINjAcvW5h-44KgiYsHn-4" target="WINjAcvW5h-44KgiYsHn-58" edge="1">
          <mxGeometry relative="1" as="geometry">
            <mxPoint x="450" y="440" as="sourcePoint" />
            <mxPoint x="610" y="440" as="targetPoint" />
          </mxGeometry>
        </mxCell>
        <mxCell id="WINjAcvW5h-44KgiYsHn-67" value="" style="endArrow=none;html=1;rounded=0;exitX=0.25;exitY=1;exitDx=0;exitDy=0;entryX=0.5;entryY=0;entryDx=0;entryDy=0;" parent="1" source="WINjAcvW5h-44KgiYsHn-3" target="WINjAcvW5h-44KgiYsHn-33" edge="1">
          <mxGeometry relative="1" as="geometry">
            <mxPoint x="450" y="440" as="sourcePoint" />
            <mxPoint x="610" y="440" as="targetPoint" />
          </mxGeometry>
        </mxCell>
        <mxCell id="WINjAcvW5h-44KgiYsHn-68" value="" style="endArrow=none;html=1;rounded=0;entryX=0.5;entryY=1;entryDx=0;entryDy=0;exitX=0.25;exitY=0;exitDx=0;exitDy=0;" parent="1" source="WINjAcvW5h-44KgiYsHn-3" target="WINjAcvW5h-44KgiYsHn-59" edge="1">
          <mxGeometry relative="1" as="geometry">
            <mxPoint x="280" y="410" as="sourcePoint" />
            <mxPoint x="210" y="480" as="targetPoint" />
          </mxGeometry>
        </mxCell>
        <mxCell id="WINjAcvW5h-44KgiYsHn-69" value="" style="endArrow=none;html=1;rounded=0;exitX=0;exitY=0.5;exitDx=0;exitDy=0;entryX=1;entryY=0.5;entryDx=0;entryDy=0;" parent="1" source="WINjAcvW5h-44KgiYsHn-3" target="WINjAcvW5h-44KgiYsHn-35" edge="1">
          <mxGeometry relative="1" as="geometry">
            <mxPoint x="305" y="460" as="sourcePoint" />
            <mxPoint x="220" y="490" as="targetPoint" />
          </mxGeometry>
        </mxCell>
        <mxCell id="WINjAcvW5h-44KgiYsHn-71" value="" style="endArrow=none;html=1;rounded=0;exitX=0.5;exitY=1;exitDx=0;exitDy=0;entryX=0.5;entryY=0;entryDx=0;entryDy=0;" parent="1" source="WINjAcvW5h-44KgiYsHn-10" target="WINjAcvW5h-44KgiYsHn-15" edge="1">
          <mxGeometry relative="1" as="geometry">
            <mxPoint x="450" y="340" as="sourcePoint" />
            <mxPoint x="610" y="340" as="targetPoint" />
          </mxGeometry>
        </mxCell>
        <mxCell id="WINjAcvW5h-44KgiYsHn-72" value="" style="endArrow=none;html=1;rounded=0;exitX=0.5;exitY=1;exitDx=0;exitDy=0;entryX=0.5;entryY=0;entryDx=0;entryDy=0;" parent="1" source="WINjAcvW5h-44KgiYsHn-13" target="WINjAcvW5h-44KgiYsHn-10" edge="1">
          <mxGeometry relative="1" as="geometry">
            <mxPoint x="450" y="340" as="sourcePoint" />
            <mxPoint x="610" y="340" as="targetPoint" />
          </mxGeometry>
        </mxCell>
        <mxCell id="WINjAcvW5h-44KgiYsHn-73" value="" style="endArrow=none;html=1;rounded=0;entryX=0;entryY=0.5;entryDx=0;entryDy=0;exitX=1;exitY=0.5;exitDx=0;exitDy=0;" parent="1" source="WINjAcvW5h-44KgiYsHn-54" target="WINjAcvW5h-44KgiYsHn-10" edge="1">
          <mxGeometry relative="1" as="geometry">
            <mxPoint x="80" y="214.5" as="sourcePoint" />
            <mxPoint x="240" y="214.5" as="targetPoint" />
          </mxGeometry>
        </mxCell>
        <mxCell id="WINjAcvW5h-44KgiYsHn-74" value="" style="endArrow=none;html=1;rounded=0;exitX=0.5;exitY=0;exitDx=0;exitDy=0;entryX=0.5;entryY=1;entryDx=0;entryDy=0;" parent="1" source="WINjAcvW5h-44KgiYsHn-2" target="WINjAcvW5h-44KgiYsHn-55" edge="1">
          <mxGeometry relative="1" as="geometry">
            <mxPoint x="370" y="214.5" as="sourcePoint" />
            <mxPoint x="530" y="214.5" as="targetPoint" />
          </mxGeometry>
        </mxCell>
        <mxCell id="WINjAcvW5h-44KgiYsHn-75" value="" style="endArrow=none;html=1;rounded=0;exitX=0.75;exitY=0;exitDx=0;exitDy=0;entryX=0;entryY=0.5;entryDx=0;entryDy=0;" parent="1" source="WINjAcvW5h-44KgiYsHn-2" target="WINjAcvW5h-44KgiYsHn-20" edge="1">
          <mxGeometry relative="1" as="geometry">
            <mxPoint x="450" y="340" as="sourcePoint" />
            <mxPoint x="610" y="340" as="targetPoint" />
          </mxGeometry>
        </mxCell>
        <mxCell id="WINjAcvW5h-44KgiYsHn-77" value="" style="endArrow=none;html=1;rounded=0;exitX=1;exitY=0.5;exitDx=0;exitDy=0;entryX=0.25;entryY=0;entryDx=0;entryDy=0;" parent="1" source="WINjAcvW5h-44KgiYsHn-17" target="WINjAcvW5h-44KgiYsHn-2" edge="1">
          <mxGeometry relative="1" as="geometry">
            <mxPoint x="450" y="340" as="sourcePoint" />
            <mxPoint x="610" y="340" as="targetPoint" />
          </mxGeometry>
        </mxCell>
        <mxCell id="WINjAcvW5h-44KgiYsHn-79" value="" style="endArrow=none;html=1;rounded=0;entryX=0.5;entryY=1;entryDx=0;entryDy=0;exitX=0.5;exitY=0;exitDx=0;exitDy=0;" parent="1" source="WINjAcvW5h-44KgiYsHn-21" target="WINjAcvW5h-44KgiYsHn-56" edge="1">
          <mxGeometry relative="1" as="geometry">
            <mxPoint x="610" y="200" as="sourcePoint" />
            <mxPoint x="595" y="40" as="targetPoint" />
          </mxGeometry>
        </mxCell>
        <mxCell id="WINjAcvW5h-44KgiYsHn-80" value="" style="endArrow=none;html=1;rounded=0;entryX=0;entryY=0.5;entryDx=0;entryDy=0;exitX=1;exitY=0.5;exitDx=0;exitDy=0;" parent="1" source="WINjAcvW5h-44KgiYsHn-21" target="WINjAcvW5h-44KgiYsHn-25" edge="1">
          <mxGeometry relative="1" as="geometry">
            <mxPoint x="640" y="210" as="sourcePoint" />
            <mxPoint x="800" y="210" as="targetPoint" />
          </mxGeometry>
        </mxCell>
        <mxCell id="WINjAcvW5h-44KgiYsHn-81" value="" style="endArrow=none;html=1;rounded=0;exitX=1;exitY=0;exitDx=0;exitDy=0;entryX=0;entryY=0.5;entryDx=0;entryDy=0;" parent="1" source="WINjAcvW5h-44KgiYsHn-21" target="WINjAcvW5h-44KgiYsHn-29" edge="1">
          <mxGeometry relative="1" as="geometry">
            <mxPoint x="640" y="210" as="sourcePoint" />
            <mxPoint x="800" y="210" as="targetPoint" />
          </mxGeometry>
        </mxCell>
        <mxCell id="WINjAcvW5h-44KgiYsHn-82" value="" style="endArrow=none;html=1;rounded=0;exitX=1;exitY=1;exitDx=0;exitDy=0;entryX=0;entryY=0.5;entryDx=0;entryDy=0;" parent="1" source="WINjAcvW5h-44KgiYsHn-21" edge="1">
          <mxGeometry relative="1" as="geometry">
            <mxPoint x="640" y="210" as="sourcePoint" />
            <mxPoint x="660" y="220" as="targetPoint" />
          </mxGeometry>
        </mxCell>
        <mxCell id="WINjAcvW5h-44KgiYsHn-83" value="" style="endArrow=none;html=1;rounded=0;exitX=0.5;exitY=1;exitDx=0;exitDy=0;entryX=0.5;entryY=0;entryDx=0;entryDy=0;" parent="1" source="WINjAcvW5h-44KgiYsHn-21" target="WINjAcvW5h-44KgiYsHn-27" edge="1">
          <mxGeometry relative="1" as="geometry">
            <mxPoint x="600" y="270" as="sourcePoint" />
            <mxPoint x="760" y="270" as="targetPoint" />
          </mxGeometry>
        </mxCell>
        <mxCell id="WINjAcvW5h-44KgiYsHn-86" value="" style="endArrow=none;html=1;rounded=0;exitX=0.5;exitY=0;exitDx=0;exitDy=0;entryX=0;entryY=0.75;entryDx=0;entryDy=0;" parent="1" source="WINjAcvW5h-44KgiYsHn-46" target="WINjAcvW5h-44KgiYsHn-6" edge="1">
          <mxGeometry relative="1" as="geometry">
            <mxPoint x="120" y="640" as="sourcePoint" />
            <mxPoint x="260" y="640" as="targetPoint" />
          </mxGeometry>
        </mxCell>
        <mxCell id="WINjAcvW5h-44KgiYsHn-88" value="" style="endArrow=none;html=1;rounded=0;exitX=1;exitY=0.75;exitDx=0;exitDy=0;entryX=0.5;entryY=0;entryDx=0;entryDy=0;" parent="1" source="WINjAcvW5h-44KgiYsHn-6" target="WINjAcvW5h-44KgiYsHn-60" edge="1">
          <mxGeometry relative="1" as="geometry">
            <mxPoint x="460" y="650" as="sourcePoint" />
            <mxPoint x="600" y="640" as="targetPoint" />
          </mxGeometry>
        </mxCell>
        <mxCell id="WINjAcvW5h-44KgiYsHn-89" value="" style="endArrow=none;html=1;rounded=0;entryX=0.35;entryY=1;entryDx=0;entryDy=0;exitX=0.5;exitY=0;exitDx=0;exitDy=0;entryPerimeter=0;" parent="1" source="WINjAcvW5h-44KgiYsHn-48" target="WINjAcvW5h-44KgiYsHn-6" edge="1">
          <mxGeometry relative="1" as="geometry">
            <mxPoint x="290" y="720" as="sourcePoint" />
            <mxPoint x="450" y="720" as="targetPoint" />
          </mxGeometry>
        </mxCell>
        <mxCell id="WINjAcvW5h-44KgiYsHn-90" value="" style="endArrow=none;html=1;rounded=0;exitX=0.625;exitY=1.033;exitDx=0;exitDy=0;exitPerimeter=0;entryX=0.5;entryY=0;entryDx=0;entryDy=0;" parent="1" source="WINjAcvW5h-44KgiYsHn-6" target="WINjAcvW5h-44KgiYsHn-52" edge="1">
          <mxGeometry relative="1" as="geometry">
            <mxPoint x="380" y="660" as="sourcePoint" />
            <mxPoint x="540" y="660" as="targetPoint" />
          </mxGeometry>
        </mxCell>
        <mxCell id="WINjAcvW5h-44KgiYsHn-91" value="First_Name" style="ellipse;whiteSpace=wrap;html=1;align=center;fillColor=#FFF2CC;" parent="1" vertex="1">
          <mxGeometry x="770" y="120" width="80" height="40" as="geometry" />
        </mxCell>
        <mxCell id="WINjAcvW5h-44KgiYsHn-92" value="Last_Name" style="ellipse;whiteSpace=wrap;html=1;align=center;fillColor=#FFF2CC;" parent="1" vertex="1">
          <mxGeometry x="770" y="230" width="80" height="40" as="geometry" />
        </mxCell>
        <mxCell id="WINjAcvW5h-44KgiYsHn-94" value="First_Name" style="ellipse;whiteSpace=wrap;html=1;align=center;fillColor=#FFF2CC;" parent="1" vertex="1">
          <mxGeometry x="100" y="630" width="80" height="40" as="geometry" />
        </mxCell>
        <mxCell id="WINjAcvW5h-44KgiYsHn-96" value="Last_Name" style="ellipse;whiteSpace=wrap;html=1;align=center;fillColor=#FFF2CC;" parent="1" vertex="1">
          <mxGeometry x="100" y="690" width="80" height="40" as="geometry" />
        </mxCell>
        <mxCell id="WINjAcvW5h-44KgiYsHn-100" value="" style="endArrow=none;html=1;rounded=0;exitX=1;exitY=0.5;exitDx=0;exitDy=0;entryX=0;entryY=0;entryDx=0;entryDy=0;" parent="1" source="WINjAcvW5h-44KgiYsHn-94" target="WINjAcvW5h-44KgiYsHn-46" edge="1">
          <mxGeometry relative="1" as="geometry">
            <mxPoint x="200" y="640" as="sourcePoint" />
            <mxPoint x="340" y="650" as="targetPoint" />
          </mxGeometry>
        </mxCell>
        <mxCell id="WINjAcvW5h-44KgiYsHn-101" value="" style="endArrow=none;html=1;rounded=0;exitX=1;exitY=0.5;exitDx=0;exitDy=0;entryX=0;entryY=1;entryDx=0;entryDy=0;" parent="1" source="WINjAcvW5h-44KgiYsHn-96" target="WINjAcvW5h-44KgiYsHn-46" edge="1">
          <mxGeometry relative="1" as="geometry">
            <mxPoint x="180" y="720" as="sourcePoint" />
            <mxPoint x="340" y="720" as="targetPoint" />
          </mxGeometry>
        </mxCell>
        <mxCell id="WINjAcvW5h-44KgiYsHn-102" value="" style="endArrow=none;html=1;rounded=0;exitX=0.5;exitY=1;exitDx=0;exitDy=0;entryX=0.5;entryY=0;entryDx=0;entryDy=0;" parent="1" source="WINjAcvW5h-44KgiYsHn-25" target="WINjAcvW5h-44KgiYsHn-92" edge="1">
          <mxGeometry relative="1" as="geometry">
            <mxPoint x="690" y="350" as="sourcePoint" />
            <mxPoint x="850" y="350" as="targetPoint" />
          </mxGeometry>
        </mxCell>
        <mxCell id="WINjAcvW5h-44KgiYsHn-103" value="" style="endArrow=none;html=1;rounded=0;exitX=0.5;exitY=0;exitDx=0;exitDy=0;entryX=0.5;entryY=1;entryDx=0;entryDy=0;" parent="1" source="WINjAcvW5h-44KgiYsHn-25" target="WINjAcvW5h-44KgiYsHn-91" edge="1">
          <mxGeometry relative="1" as="geometry">
            <mxPoint x="810" y="190" as="sourcePoint" />
            <mxPoint x="970" y="190" as="targetPoint" />
          </mxGeometry>
        </mxCell>
        <mxCell id="WINjAcvW5h-44KgiYsHn-105" value="" style="endArrow=none;html=1;rounded=0;exitX=0.5;exitY=1;exitDx=0;exitDy=0;entryX=0.5;entryY=0;entryDx=0;entryDy=0;" parent="1" source="WINjAcvW5h-44KgiYsHn-6" target="WINjAcvW5h-44KgiYsHn-107" edge="1">
          <mxGeometry relative="1" as="geometry">
            <mxPoint x="460" y="610" as="sourcePoint" />
            <mxPoint x="360" y="840" as="targetPoint" />
          </mxGeometry>
        </mxCell>
        <mxCell id="WINjAcvW5h-44KgiYsHn-106" value="1" style="resizable=0;html=1;whiteSpace=wrap;align=right;verticalAlign=bottom;" parent="WINjAcvW5h-44KgiYsHn-105" connectable="0" vertex="1">
          <mxGeometry x="1" relative="1" as="geometry" />
        </mxCell>
        <mxCell id="WINjAcvW5h-44KgiYsHn-107" value="Related_to" style="shape=rhombus;double=1;perimeter=rhombusPerimeter;whiteSpace=wrap;html=1;align=center;fillColor=#9AC7BF;" parent="1" vertex="1">
          <mxGeometry x="300" y="800" width="120" height="60" as="geometry" />
        </mxCell>
        <mxCell id="WINjAcvW5h-44KgiYsHn-108" value="Dependent" style="shape=ext;margin=3;double=1;whiteSpace=wrap;html=1;align=center;fillColor=#CCCCFF;" parent="1" vertex="1">
          <mxGeometry x="310" y="940" width="100" height="40" as="geometry" />
        </mxCell>
        <mxCell id="WINjAcvW5h-44KgiYsHn-109" value="" style="shape=link;html=1;rounded=0;exitX=0.5;exitY=1;exitDx=0;exitDy=0;width=4;entryX=0.5;entryY=0;entryDx=0;entryDy=0;" parent="1" source="WINjAcvW5h-44KgiYsHn-107" target="WINjAcvW5h-44KgiYsHn-108" edge="1">
          <mxGeometry relative="1" as="geometry">
            <mxPoint x="390" y="890" as="sourcePoint" />
            <mxPoint x="470" y="890" as="targetPoint" />
            <Array as="points">
              <mxPoint x="360" y="890" />
            </Array>
          </mxGeometry>
        </mxCell>
        <mxCell id="WINjAcvW5h-44KgiYsHn-110" value="N" style="resizable=0;html=1;whiteSpace=wrap;align=right;verticalAlign=bottom;" parent="WINjAcvW5h-44KgiYsHn-109" connectable="0" vertex="1">
          <mxGeometry x="1" relative="1" as="geometry" />
        </mxCell>
        <mxCell id="WINjAcvW5h-44KgiYsHn-112" value="Sex" style="ellipse;whiteSpace=wrap;html=1;align=center;fillColor=#D5E8D4;" parent="1" vertex="1">
          <mxGeometry x="250" y="1020" width="100" height="40" as="geometry" />
        </mxCell>
        <mxCell id="WINjAcvW5h-44KgiYsHn-114" value="Date_of_Birth" style="ellipse;whiteSpace=wrap;html=1;align=center;fillColor=#D5E8D4;" parent="1" vertex="1">
          <mxGeometry x="370" y="1020" width="100" height="40" as="geometry" />
        </mxCell>
        <mxCell id="WINjAcvW5h-44KgiYsHn-115" value="Relationship" style="ellipse;whiteSpace=wrap;html=1;align=center;fillColor=#D5E8D4;" parent="1" vertex="1">
          <mxGeometry x="420" y="980" width="100" height="40" as="geometry" />
        </mxCell>
        <mxCell id="WINjAcvW5h-44KgiYsHn-116" value="&lt;span style=&quot;border-bottom: 1px dotted&quot;&gt;Name&lt;/span&gt;" style="ellipse;whiteSpace=wrap;html=1;align=center;fillColor=#FF99CC;" parent="1" vertex="1">
          <mxGeometry x="195" y="980" width="100" height="40" as="geometry" />
        </mxCell>
        <mxCell id="WINjAcvW5h-44KgiYsHn-117" value="" style="endArrow=none;html=1;rounded=0;exitX=0.5;exitY=0;exitDx=0;exitDy=0;entryX=0;entryY=0.5;entryDx=0;entryDy=0;" parent="1" source="WINjAcvW5h-44KgiYsHn-116" target="WINjAcvW5h-44KgiYsHn-108" edge="1">
          <mxGeometry relative="1" as="geometry">
            <mxPoint x="250" y="950" as="sourcePoint" />
            <mxPoint x="410" y="950" as="targetPoint" />
          </mxGeometry>
        </mxCell>
        <mxCell id="WINjAcvW5h-44KgiYsHn-118" value="" style="endArrow=none;html=1;rounded=0;exitX=0.5;exitY=0;exitDx=0;exitDy=0;entryX=0.25;entryY=1;entryDx=0;entryDy=0;" parent="1" source="WINjAcvW5h-44KgiYsHn-112" target="WINjAcvW5h-44KgiYsHn-108" edge="1">
          <mxGeometry relative="1" as="geometry">
            <mxPoint x="350" y="990" as="sourcePoint" />
            <mxPoint x="510" y="990" as="targetPoint" />
          </mxGeometry>
        </mxCell>
        <mxCell id="WINjAcvW5h-44KgiYsHn-119" value="" style="endArrow=none;html=1;rounded=0;exitX=0.75;exitY=1;exitDx=0;exitDy=0;entryX=0.43;entryY=0.025;entryDx=0;entryDy=0;entryPerimeter=0;" parent="1" source="WINjAcvW5h-44KgiYsHn-108" target="WINjAcvW5h-44KgiYsHn-114" edge="1">
          <mxGeometry relative="1" as="geometry">
            <mxPoint x="380" y="1000" as="sourcePoint" />
            <mxPoint x="540" y="1000" as="targetPoint" />
          </mxGeometry>
        </mxCell>
        <mxCell id="WINjAcvW5h-44KgiYsHn-120" value="" style="endArrow=none;html=1;rounded=0;exitX=1;exitY=0.5;exitDx=0;exitDy=0;entryX=0.5;entryY=0;entryDx=0;entryDy=0;" parent="1" source="WINjAcvW5h-44KgiYsHn-108" target="WINjAcvW5h-44KgiYsHn-115" edge="1">
          <mxGeometry relative="1" as="geometry">
            <mxPoint x="440" y="960" as="sourcePoint" />
            <mxPoint x="600" y="960" as="targetPoint" />
          </mxGeometry>
        </mxCell>
        <mxCell id="WINjAcvW5h-44KgiYsHn-121" value="" style="shape=link;html=1;rounded=0;exitX=1;exitY=0.5;exitDx=0;exitDy=0;entryX=0;entryY=0.5;entryDx=0;entryDy=0;" parent="1" source="WINjAcvW5h-44KgiYsHn-10" target="WINjAcvW5h-44KgiYsHn-123" edge="1">
          <mxGeometry relative="1" as="geometry">
            <mxPoint x="220" y="290" as="sourcePoint" />
            <mxPoint x="210" y="250" as="targetPoint" />
          </mxGeometry>
        </mxCell>
        <mxCell id="WINjAcvW5h-44KgiYsHn-122" value="1" style="resizable=0;html=1;whiteSpace=wrap;align=right;verticalAlign=bottom;" parent="WINjAcvW5h-44KgiYsHn-121" connectable="0" vertex="1">
          <mxGeometry x="1" relative="1" as="geometry" />
        </mxCell>
        <mxCell id="WINjAcvW5h-44KgiYsHn-123" value="Has" style="shape=rhombus;perimeter=rhombusPerimeter;whiteSpace=wrap;html=1;align=center;fillColor=#99FF99;" parent="1" vertex="1">
          <mxGeometry x="205" y="170" width="55" height="40" as="geometry" />
        </mxCell>
        <mxCell id="WINjAcvW5h-44KgiYsHn-124" value="" style="shape=link;html=1;rounded=0;entryX=1;entryY=0.5;entryDx=0;entryDy=0;exitX=0;exitY=0.5;exitDx=0;exitDy=0;" parent="1" source="WINjAcvW5h-44KgiYsHn-2" target="WINjAcvW5h-44KgiYsHn-123" edge="1">
          <mxGeometry relative="1" as="geometry">
            <mxPoint x="290" y="270" as="sourcePoint" />
            <mxPoint x="450" y="270" as="targetPoint" />
          </mxGeometry>
        </mxCell>
        <mxCell id="WINjAcvW5h-44KgiYsHn-125" value="N" style="resizable=0;html=1;whiteSpace=wrap;align=right;verticalAlign=bottom;" parent="WINjAcvW5h-44KgiYsHn-124" connectable="0" vertex="1">
          <mxGeometry x="1" relative="1" as="geometry" />
        </mxCell>
        <mxCell id="WINjAcvW5h-44KgiYsHn-128" value="" style="shape=link;html=1;rounded=0;exitX=1;exitY=0.5;exitDx=0;exitDy=0;entryX=0;entryY=0.5;entryDx=0;entryDy=0;" parent="1" source="WINjAcvW5h-44KgiYsHn-2" target="WINjAcvW5h-44KgiYsHn-131" edge="1">
          <mxGeometry relative="1" as="geometry">
            <mxPoint x="420" y="219.5" as="sourcePoint" />
            <mxPoint x="470" y="210" as="targetPoint" />
          </mxGeometry>
        </mxCell>
        <mxCell id="WINjAcvW5h-44KgiYsHn-129" value="1" style="resizable=0;html=1;whiteSpace=wrap;align=right;verticalAlign=bottom;" parent="WINjAcvW5h-44KgiYsHn-128" connectable="0" vertex="1">
          <mxGeometry x="1" relative="1" as="geometry" />
        </mxCell>
        <mxCell id="WINjAcvW5h-44KgiYsHn-131" value="Works_at" style="shape=rhombus;perimeter=rhombusPerimeter;whiteSpace=wrap;html=1;align=center;fillColor=#99FF99;" parent="1" vertex="1">
          <mxGeometry x="460" y="170" width="70" height="40" as="geometry" />
        </mxCell>
        <mxCell id="WINjAcvW5h-44KgiYsHn-132" value="" style="shape=link;html=1;rounded=0;entryX=1;entryY=0.5;entryDx=0;entryDy=0;exitX=0;exitY=0.5;exitDx=0;exitDy=0;" parent="1" source="WINjAcvW5h-44KgiYsHn-21" target="WINjAcvW5h-44KgiYsHn-131" edge="1">
          <mxGeometry relative="1" as="geometry">
            <mxPoint x="530" y="160" as="sourcePoint" />
            <mxPoint x="700" y="220" as="targetPoint" />
          </mxGeometry>
        </mxCell>
        <mxCell id="WINjAcvW5h-44KgiYsHn-133" value="N" style="resizable=0;html=1;whiteSpace=wrap;align=right;verticalAlign=bottom;" parent="WINjAcvW5h-44KgiYsHn-132" connectable="0" vertex="1">
          <mxGeometry x="1" relative="1" as="geometry" />
        </mxCell>
        <mxCell id="WINjAcvW5h-44KgiYsHn-139" value="" style="shape=link;html=1;rounded=0;exitX=0.25;exitY=1;exitDx=0;exitDy=0;entryX=0.5;entryY=0;entryDx=0;entryDy=0;" parent="1" source="WINjAcvW5h-44KgiYsHn-2" target="WINjAcvW5h-44KgiYsHn-141" edge="1">
          <mxGeometry relative="1" as="geometry">
            <mxPoint x="360" y="260" as="sourcePoint" />
            <mxPoint x="520" y="260" as="targetPoint" />
          </mxGeometry>
        </mxCell>
        <mxCell id="WINjAcvW5h-44KgiYsHn-140" value="1" style="resizable=0;html=1;whiteSpace=wrap;align=right;verticalAlign=bottom;" parent="WINjAcvW5h-44KgiYsHn-139" connectable="0" vertex="1">
          <mxGeometry x="1" relative="1" as="geometry" />
        </mxCell>
        <mxCell id="WINjAcvW5h-44KgiYsHn-141" value="Maintains" style="shape=rhombus;perimeter=rhombusPerimeter;whiteSpace=wrap;html=1;align=center;fillColor=#99FF99;" parent="1" vertex="1">
          <mxGeometry x="150" y="280" width="100" height="50" as="geometry" />
        </mxCell>
        <mxCell id="WINjAcvW5h-44KgiYsHn-147" value="Offers" style="shape=rhombus;perimeter=rhombusPerimeter;whiteSpace=wrap;html=1;align=center;fillColor=#99FF99;" parent="1" vertex="1">
          <mxGeometry x="460" y="280" width="100" height="50" as="geometry" />
        </mxCell>
        <mxCell id="WINjAcvW5h-44KgiYsHn-148" value="" style="shape=link;html=1;rounded=0;entryX=0.5;entryY=1;entryDx=0;entryDy=0;exitX=0.4;exitY=0;exitDx=0;exitDy=0;exitPerimeter=0;" parent="1" source="WINjAcvW5h-44KgiYsHn-4" target="WINjAcvW5h-44KgiYsHn-147" edge="1">
          <mxGeometry relative="1" as="geometry">
            <mxPoint x="270" y="500" as="sourcePoint" />
            <mxPoint x="430" y="500" as="targetPoint" />
          </mxGeometry>
        </mxCell>
        <mxCell id="WINjAcvW5h-44KgiYsHn-149" value="N" style="resizable=0;html=1;whiteSpace=wrap;align=right;verticalAlign=bottom;" parent="WINjAcvW5h-44KgiYsHn-148" connectable="0" vertex="1">
          <mxGeometry x="1" relative="1" as="geometry" />
        </mxCell>
        <mxCell id="WINjAcvW5h-44KgiYsHn-150" value="" style="shape=link;html=1;rounded=0;entryX=0.5;entryY=1;entryDx=0;entryDy=0;exitX=0.5;exitY=0;exitDx=0;exitDy=0;" parent="1" source="WINjAcvW5h-44KgiYsHn-3" target="WINjAcvW5h-44KgiYsHn-141" edge="1">
          <mxGeometry relative="1" as="geometry">
            <mxPoint x="460" y="310" as="sourcePoint" />
            <mxPoint x="620" y="310" as="targetPoint" />
          </mxGeometry>
        </mxCell>
        <mxCell id="WINjAcvW5h-44KgiYsHn-151" value="N" style="resizable=0;html=1;whiteSpace=wrap;align=right;verticalAlign=bottom;" parent="WINjAcvW5h-44KgiYsHn-150" connectable="0" vertex="1">
          <mxGeometry x="1" relative="1" as="geometry" />
        </mxCell>
        <mxCell id="WINjAcvW5h-44KgiYsHn-153" value="" style="shape=link;html=1;rounded=0;exitX=0.75;exitY=1;exitDx=0;exitDy=0;entryX=0.5;entryY=0;entryDx=0;entryDy=0;" parent="1" source="WINjAcvW5h-44KgiYsHn-2" target="WINjAcvW5h-44KgiYsHn-147" edge="1">
          <mxGeometry relative="1" as="geometry">
            <mxPoint x="450" y="270" as="sourcePoint" />
            <mxPoint x="610" y="270" as="targetPoint" />
          </mxGeometry>
        </mxCell>
        <mxCell id="WINjAcvW5h-44KgiYsHn-154" value="1" style="resizable=0;html=1;whiteSpace=wrap;align=right;verticalAlign=bottom;" parent="WINjAcvW5h-44KgiYsHn-153" connectable="0" vertex="1">
          <mxGeometry x="1" relative="1" as="geometry" />
        </mxCell>
        <mxCell id="WINjAcvW5h-44KgiYsHn-155" value="Holds" style="shape=rhombus;perimeter=rhombusPerimeter;whiteSpace=wrap;html=1;align=center;fillColor=#99FF99;" parent="1" vertex="1">
          <mxGeometry x="140" y="510" width="120" height="60" as="geometry" />
        </mxCell>
        <mxCell id="WINjAcvW5h-44KgiYsHn-156" value="Avails" style="shape=rhombus;perimeter=rhombusPerimeter;whiteSpace=wrap;html=1;align=center;fillColor=#99FF99;" parent="1" vertex="1">
          <mxGeometry x="460" y="510" width="120" height="60" as="geometry" />
        </mxCell>
        <mxCell id="WINjAcvW5h-44KgiYsHn-157" value="Phone" style="ellipse;shape=doubleEllipse;margin=3;whiteSpace=wrap;html=1;align=center;fillColor=#FFD966;" parent="1" vertex="1">
          <mxGeometry x="520" y="120" width="80" height="30" as="geometry" />
        </mxCell>
        <mxCell id="WINjAcvW5h-44KgiYsHn-158" value="" style="endArrow=none;html=1;rounded=0;exitX=0.5;exitY=1;exitDx=0;exitDy=0;entryX=0.25;entryY=0;entryDx=0;entryDy=0;" parent="1" source="WINjAcvW5h-44KgiYsHn-157" target="WINjAcvW5h-44KgiYsHn-21" edge="1">
          <mxGeometry relative="1" as="geometry">
            <mxPoint x="590" y="220" as="sourcePoint" />
            <mxPoint x="750" y="220" as="targetPoint" />
          </mxGeometry>
        </mxCell>
        <mxCell id="WINjAcvW5h-44KgiYsHn-159" value="" style="shape=link;html=1;rounded=0;exitX=0.25;exitY=0;exitDx=0;exitDy=0;entryX=0.5;entryY=1;entryDx=0;entryDy=0;" parent="1" source="WINjAcvW5h-44KgiYsHn-6" target="WINjAcvW5h-44KgiYsHn-155" edge="1">
          <mxGeometry relative="1" as="geometry">
            <mxPoint x="460" y="540" as="sourcePoint" />
            <mxPoint x="620" y="540" as="targetPoint" />
          </mxGeometry>
        </mxCell>
        <mxCell id="WINjAcvW5h-44KgiYsHn-160" value="N" style="resizable=0;html=1;whiteSpace=wrap;align=right;verticalAlign=bottom;" parent="WINjAcvW5h-44KgiYsHn-159" connectable="0" vertex="1">
          <mxGeometry x="1" relative="1" as="geometry" />
        </mxCell>
        <mxCell id="WINjAcvW5h-44KgiYsHn-161" value="" style="shape=link;html=1;rounded=0;exitX=0.5;exitY=1;exitDx=0;exitDy=0;entryX=0.5;entryY=0;entryDx=0;entryDy=0;" parent="1" source="WINjAcvW5h-44KgiYsHn-3" target="WINjAcvW5h-44KgiYsHn-155" edge="1">
          <mxGeometry relative="1" as="geometry">
            <mxPoint x="460" y="540" as="sourcePoint" />
            <mxPoint x="620" y="540" as="targetPoint" />
          </mxGeometry>
        </mxCell>
        <mxCell id="WINjAcvW5h-44KgiYsHn-162" value="N" style="resizable=0;html=1;whiteSpace=wrap;align=right;verticalAlign=bottom;" parent="WINjAcvW5h-44KgiYsHn-161" connectable="0" vertex="1">
          <mxGeometry x="1" relative="1" as="geometry" />
        </mxCell>
        <mxCell id="WINjAcvW5h-44KgiYsHn-168" value="" style="shape=link;html=1;rounded=0;exitX=0.5;exitY=1;exitDx=0;exitDy=0;entryX=0.5;entryY=0;entryDx=0;entryDy=0;" parent="1" source="WINjAcvW5h-44KgiYsHn-4" target="WINjAcvW5h-44KgiYsHn-156" edge="1">
          <mxGeometry relative="1" as="geometry">
            <mxPoint x="560" y="540" as="sourcePoint" />
            <mxPoint x="720" y="540" as="targetPoint" />
          </mxGeometry>
        </mxCell>
        <mxCell id="WINjAcvW5h-44KgiYsHn-169" value="N" style="resizable=0;html=1;whiteSpace=wrap;align=right;verticalAlign=bottom;" parent="WINjAcvW5h-44KgiYsHn-168" connectable="0" vertex="1">
          <mxGeometry x="1" relative="1" as="geometry" />
        </mxCell>
        <mxCell id="WINjAcvW5h-44KgiYsHn-173" value="" style="endArrow=none;html=1;rounded=0;exitX=0.75;exitY=0;exitDx=0;exitDy=0;entryX=0.5;entryY=1;entryDx=0;entryDy=0;" parent="1" source="WINjAcvW5h-44KgiYsHn-6" target="WINjAcvW5h-44KgiYsHn-156" edge="1">
          <mxGeometry relative="1" as="geometry">
            <mxPoint x="410" y="600" as="sourcePoint" />
            <mxPoint x="570" y="600" as="targetPoint" />
          </mxGeometry>
        </mxCell>
        <mxCell id="WINjAcvW5h-44KgiYsHn-174" value="N" style="resizable=0;html=1;whiteSpace=wrap;align=right;verticalAlign=bottom;" parent="WINjAcvW5h-44KgiYsHn-173" connectable="0" vertex="1">
          <mxGeometry x="1" relative="1" as="geometry" />
        </mxCell>
        <mxCell id="WINjAcvW5h-44KgiYsHn-175" value="Belongs_to" style="shape=rhombus;perimeter=rhombusPerimeter;whiteSpace=wrap;html=1;align=center;fillColor=#99FF99;" parent="1" vertex="1">
          <mxGeometry x="305" y="340" width="110" height="80" as="geometry" />
        </mxCell>
        <mxCell id="WINjAcvW5h-44KgiYsHn-176" value="" style="shape=link;html=1;rounded=0;exitX=0.5;exitY=1;exitDx=0;exitDy=0;entryX=0.5;entryY=0;entryDx=0;entryDy=0;" parent="1" source="WINjAcvW5h-44KgiYsHn-2" target="WINjAcvW5h-44KgiYsHn-175" edge="1">
          <mxGeometry relative="1" as="geometry">
            <mxPoint x="350" y="590" as="sourcePoint" />
            <mxPoint x="360" y="340" as="targetPoint" />
          </mxGeometry>
        </mxCell>
        <mxCell id="WINjAcvW5h-44KgiYsHn-177" value="1" style="resizable=0;html=1;whiteSpace=wrap;align=right;verticalAlign=bottom;" parent="WINjAcvW5h-44KgiYsHn-176" connectable="0" vertex="1">
          <mxGeometry x="1" relative="1" as="geometry" />
        </mxCell>
        <mxCell id="WINjAcvW5h-44KgiYsHn-179" value="" style="shape=link;html=1;rounded=0;entryX=0.5;entryY=1;entryDx=0;entryDy=0;exitX=0.5;exitY=0;exitDx=0;exitDy=0;" parent="1" source="WINjAcvW5h-44KgiYsHn-6" target="WINjAcvW5h-44KgiYsHn-175" edge="1">
          <mxGeometry relative="1" as="geometry">
            <mxPoint x="460" y="440" as="sourcePoint" />
            <mxPoint x="620" y="440" as="targetPoint" />
          </mxGeometry>
        </mxCell>
        <mxCell id="WINjAcvW5h-44KgiYsHn-180" value="N" style="resizable=0;html=1;whiteSpace=wrap;align=right;verticalAlign=bottom;" parent="WINjAcvW5h-44KgiYsHn-179" connectable="0" vertex="1">
          <mxGeometry x="1" relative="1" as="geometry" />
        </mxCell>
        <mxCell id="mLR-P2IpjJweAXhEsMOe-1" value="&lt;b&gt;&lt;font style=&quot;font-size: 24px;&quot;&gt;ER DIAGRAM FOR SBI BANK MANAGEMENT SYSTEM&lt;/font&gt;&lt;/b&gt;" style="text;strokeColor=none;align=center;fillColor=none;html=1;verticalAlign=middle;whiteSpace=wrap;rounded=0;" parent="1" vertex="1">
          <mxGeometry x="113" y="20" width="625" height="40" as="geometry" />
        </mxCell>
        <mxCell id="2eoOif4scYlNMa7XOarm-1" value="Qualification" style="ellipse;shape=doubleEllipse;margin=3;whiteSpace=wrap;html=1;align=center;fillColor=#FFD966;" parent="1" vertex="1">
          <mxGeometry x="660" y="205" width="100" height="40" as="geometry" />
        </mxCell>
        <mxCell id="W6gdRIT23fEG8uOYzL49-1" value="Date_of_Birth" style="ellipse;whiteSpace=wrap;html=1;align=center;fillColor=#FF9999;" vertex="1" parent="1">
          <mxGeometry x="520" y="245" width="85" height="30" as="geometry" />
        </mxCell>
        <mxCell id="W6gdRIT23fEG8uOYzL49-3" value="" style="endArrow=none;html=1;rounded=0;exitX=0.5;exitY=0;exitDx=0;exitDy=0;entryX=0.25;entryY=1;entryDx=0;entryDy=0;" edge="1" parent="1" source="W6gdRIT23fEG8uOYzL49-1" target="WINjAcvW5h-44KgiYsHn-21">
          <mxGeometry relative="1" as="geometry">
            <mxPoint x="580" y="220" as="sourcePoint" />
            <mxPoint x="740" y="220" as="targetPoint" />
          </mxGeometry>
        </mxCell>
      </root>
    </mxGraphModel>
  </diagram>
  <diagram id="AtWo61qxxnPxLW0ubRge" name="Page-2">
    <mxGraphModel dx="1970" dy="1628" grid="1" gridSize="10" guides="1" tooltips="1" connect="1" arrows="1" fold="1" page="1" pageScale="1" pageWidth="850" pageHeight="1100" math="0" shadow="0">
      <root>
        <mxCell id="0" />
        <mxCell id="1" parent="0" />
        <mxCell id="4jG-PaD_11Gf1T_WSaR_-1" value="&lt;b&gt;&lt;font style=&quot;font-size: 24px;&quot;&gt;ER Diagram To Relational Model&lt;/font&gt;&lt;/b&gt;" style="text;strokeColor=none;align=center;fillColor=none;html=1;verticalAlign=middle;whiteSpace=wrap;rounded=0;" parent="1" vertex="1">
          <mxGeometry x="-105" y="-1070" width="410" height="30" as="geometry" />
        </mxCell>
        <mxCell id="-W1VKgLo_OxEkXONZZAu-1" value="BANK" style="shape=table;startSize=30;container=1;collapsible=1;childLayout=tableLayout;fixedRows=1;rowLines=0;fontStyle=1;align=center;resizeLast=1;html=1;fillColor=#CCE5FF;" parent="1" vertex="1">
          <mxGeometry x="-365" y="-1000" width="180" height="110" as="geometry">
            <mxRectangle x="40" y="-1000" width="80" height="30" as="alternateBounds" />
          </mxGeometry>
        </mxCell>
        <mxCell id="-W1VKgLo_OxEkXONZZAu-2" value="" style="shape=tableRow;horizontal=0;startSize=0;swimlaneHead=0;swimlaneBody=0;fillColor=#FFCCCC;collapsible=0;dropTarget=0;points=[[0,0.5],[1,0.5]];portConstraint=eastwest;top=0;left=0;right=0;bottom=1;" parent="-W1VKgLo_OxEkXONZZAu-1" vertex="1">
          <mxGeometry y="30" width="180" height="30" as="geometry" />
        </mxCell>
        <mxCell id="-W1VKgLo_OxEkXONZZAu-3" value="PK(number(5))" style="shape=partialRectangle;connectable=0;fillColor=none;top=0;left=0;bottom=0;right=0;fontStyle=1;overflow=hidden;whiteSpace=wrap;html=1;" parent="-W1VKgLo_OxEkXONZZAu-2" vertex="1">
          <mxGeometry width="90" height="30" as="geometry">
            <mxRectangle width="90" height="30" as="alternateBounds" />
          </mxGeometry>
        </mxCell>
        <mxCell id="-W1VKgLo_OxEkXONZZAu-4" value="Code" style="shape=partialRectangle;connectable=0;fillColor=none;top=0;left=0;bottom=0;right=0;align=left;spacingLeft=6;fontStyle=5;overflow=hidden;whiteSpace=wrap;html=1;" parent="-W1VKgLo_OxEkXONZZAu-2" vertex="1">
          <mxGeometry x="90" width="90" height="30" as="geometry">
            <mxRectangle width="90" height="30" as="alternateBounds" />
          </mxGeometry>
        </mxCell>
        <mxCell id="-W1VKgLo_OxEkXONZZAu-5" value="" style="shape=tableRow;horizontal=0;startSize=0;swimlaneHead=0;swimlaneBody=0;fillColor=none;collapsible=0;dropTarget=0;points=[[0,0.5],[1,0.5]];portConstraint=eastwest;top=0;left=0;right=0;bottom=0;" parent="-W1VKgLo_OxEkXONZZAu-1" vertex="1">
          <mxGeometry y="60" width="180" height="30" as="geometry" />
        </mxCell>
        <mxCell id="-W1VKgLo_OxEkXONZZAu-6" value="varchar2(20)" style="shape=partialRectangle;connectable=0;fillColor=none;top=0;left=0;bottom=0;right=0;editable=1;overflow=hidden;whiteSpace=wrap;html=1;" parent="-W1VKgLo_OxEkXONZZAu-5" vertex="1">
          <mxGeometry width="90" height="30" as="geometry">
            <mxRectangle width="90" height="30" as="alternateBounds" />
          </mxGeometry>
        </mxCell>
        <mxCell id="-W1VKgLo_OxEkXONZZAu-7" value="Name" style="shape=partialRectangle;connectable=0;fillColor=none;top=0;left=0;bottom=0;right=0;align=left;spacingLeft=6;overflow=hidden;whiteSpace=wrap;html=1;" parent="-W1VKgLo_OxEkXONZZAu-5" vertex="1">
          <mxGeometry x="90" width="90" height="30" as="geometry">
            <mxRectangle width="90" height="30" as="alternateBounds" />
          </mxGeometry>
        </mxCell>
        <mxCell id="-W1VKgLo_OxEkXONZZAu-8" value="" style="shape=tableRow;horizontal=0;startSize=0;swimlaneHead=0;swimlaneBody=0;fillColor=none;collapsible=0;dropTarget=0;points=[[0,0.5],[1,0.5]];portConstraint=eastwest;top=0;left=0;right=0;bottom=0;" parent="-W1VKgLo_OxEkXONZZAu-1" vertex="1">
          <mxGeometry y="90" width="180" height="20" as="geometry" />
        </mxCell>
        <mxCell id="-W1VKgLo_OxEkXONZZAu-9" value="varchar2(50)" style="shape=partialRectangle;connectable=0;fillColor=none;top=0;left=0;bottom=0;right=0;editable=1;overflow=hidden;whiteSpace=wrap;html=1;" parent="-W1VKgLo_OxEkXONZZAu-8" vertex="1">
          <mxGeometry width="90" height="20" as="geometry">
            <mxRectangle width="90" height="20" as="alternateBounds" />
          </mxGeometry>
        </mxCell>
        <mxCell id="-W1VKgLo_OxEkXONZZAu-10" value="Address" style="shape=partialRectangle;connectable=0;fillColor=none;top=0;left=0;bottom=0;right=0;align=left;spacingLeft=6;overflow=hidden;whiteSpace=wrap;html=1;" parent="-W1VKgLo_OxEkXONZZAu-8" vertex="1">
          <mxGeometry x="90" width="90" height="20" as="geometry">
            <mxRectangle width="90" height="20" as="alternateBounds" />
          </mxGeometry>
        </mxCell>
        <mxCell id="zxjvoeXlE_MbhnGL5teU-1" value="BRANCH" style="shape=table;startSize=30;container=1;collapsible=1;childLayout=tableLayout;fixedRows=1;rowLines=0;fontStyle=1;align=center;resizeLast=1;html=1;whiteSpace=wrap;fillColor=#CCE5FF;" parent="1" vertex="1">
          <mxGeometry x="-140" y="-710" width="240" height="130" as="geometry" />
        </mxCell>
        <mxCell id="toTr2b7wkfYUstjP9SEc-2" value="" style="shape=tableRow;horizontal=0;startSize=0;swimlaneHead=0;swimlaneBody=0;fillColor=#FFCCCC;collapsible=0;dropTarget=0;points=[[0,0.5],[1,0.5]];portConstraint=eastwest;top=0;left=0;right=0;bottom=1;" parent="zxjvoeXlE_MbhnGL5teU-1" vertex="1">
          <mxGeometry y="30" width="240" height="30" as="geometry" />
        </mxCell>
        <mxCell id="toTr2b7wkfYUstjP9SEc-3" value="PK(number(5))" style="shape=partialRectangle;connectable=0;fillColor=none;top=0;left=0;bottom=0;right=0;fontStyle=1;overflow=hidden;whiteSpace=wrap;html=1;" parent="toTr2b7wkfYUstjP9SEc-2" vertex="1">
          <mxGeometry width="130" height="30" as="geometry">
            <mxRectangle width="130" height="30" as="alternateBounds" />
          </mxGeometry>
        </mxCell>
        <mxCell id="toTr2b7wkfYUstjP9SEc-4" value="Branch_id" style="shape=partialRectangle;connectable=0;fillColor=none;top=0;left=0;bottom=0;right=0;align=left;spacingLeft=6;fontStyle=5;overflow=hidden;whiteSpace=wrap;html=1;" parent="toTr2b7wkfYUstjP9SEc-2" vertex="1">
          <mxGeometry x="130" width="110" height="30" as="geometry">
            <mxRectangle width="110" height="30" as="alternateBounds" />
          </mxGeometry>
        </mxCell>
        <mxCell id="zxjvoeXlE_MbhnGL5teU-8" value="" style="shape=tableRow;horizontal=0;startSize=0;swimlaneHead=0;swimlaneBody=0;fillColor=none;collapsible=0;dropTarget=0;points=[[0,0.5],[1,0.5]];portConstraint=eastwest;top=0;left=0;right=0;bottom=0;html=1;" parent="zxjvoeXlE_MbhnGL5teU-1" vertex="1">
          <mxGeometry y="60" width="240" height="30" as="geometry" />
        </mxCell>
        <mxCell id="zxjvoeXlE_MbhnGL5teU-9" value="varchar2(20)" style="shape=partialRectangle;connectable=0;fillColor=none;top=0;left=0;bottom=0;right=0;editable=1;overflow=hidden;html=1;whiteSpace=wrap;" parent="zxjvoeXlE_MbhnGL5teU-8" vertex="1">
          <mxGeometry width="130" height="30" as="geometry">
            <mxRectangle width="130" height="30" as="alternateBounds" />
          </mxGeometry>
        </mxCell>
        <mxCell id="zxjvoeXlE_MbhnGL5teU-10" value="Name" style="shape=partialRectangle;connectable=0;fillColor=none;top=0;left=0;bottom=0;right=0;align=left;spacingLeft=6;overflow=hidden;html=1;whiteSpace=wrap;" parent="zxjvoeXlE_MbhnGL5teU-8" vertex="1">
          <mxGeometry x="130" width="110" height="30" as="geometry">
            <mxRectangle width="110" height="30" as="alternateBounds" />
          </mxGeometry>
        </mxCell>
        <mxCell id="zxjvoeXlE_MbhnGL5teU-11" value="" style="shape=tableRow;horizontal=0;startSize=0;swimlaneHead=0;swimlaneBody=0;fillColor=none;collapsible=0;dropTarget=0;points=[[0,0.5],[1,0.5]];portConstraint=eastwest;top=0;left=0;right=0;bottom=0;html=1;" parent="zxjvoeXlE_MbhnGL5teU-1" vertex="1">
          <mxGeometry y="90" width="240" height="20" as="geometry" />
        </mxCell>
        <mxCell id="zxjvoeXlE_MbhnGL5teU-12" value="varchar2(50)" style="shape=partialRectangle;connectable=0;fillColor=none;top=0;left=0;bottom=0;right=0;editable=1;overflow=hidden;html=1;whiteSpace=wrap;" parent="zxjvoeXlE_MbhnGL5teU-11" vertex="1">
          <mxGeometry width="130" height="20" as="geometry">
            <mxRectangle width="130" height="20" as="alternateBounds" />
          </mxGeometry>
        </mxCell>
        <mxCell id="zxjvoeXlE_MbhnGL5teU-13" value="Address" style="shape=partialRectangle;connectable=0;fillColor=none;top=0;left=0;bottom=0;right=0;align=left;spacingLeft=6;overflow=hidden;html=1;whiteSpace=wrap;" parent="zxjvoeXlE_MbhnGL5teU-11" vertex="1">
          <mxGeometry x="130" width="110" height="20" as="geometry">
            <mxRectangle width="110" height="20" as="alternateBounds" />
          </mxGeometry>
        </mxCell>
        <mxCell id="QoN-G7_0WRLcgAnrhixv-11" value="" style="shape=tableRow;horizontal=0;startSize=0;swimlaneHead=0;swimlaneBody=0;fillColor=#E6FFCC;collapsible=0;dropTarget=0;points=[[0,0.5],[1,0.5]];portConstraint=eastwest;top=0;left=0;right=0;bottom=0;html=1;" parent="zxjvoeXlE_MbhnGL5teU-1" vertex="1">
          <mxGeometry y="110" width="240" height="20" as="geometry" />
        </mxCell>
        <mxCell id="QoN-G7_0WRLcgAnrhixv-12" value="FK" style="shape=partialRectangle;connectable=0;fillColor=none;top=0;left=0;bottom=0;right=0;editable=1;overflow=hidden;html=1;whiteSpace=wrap;" parent="QoN-G7_0WRLcgAnrhixv-11" vertex="1">
          <mxGeometry width="130" height="20" as="geometry">
            <mxRectangle width="130" height="20" as="alternateBounds" />
          </mxGeometry>
        </mxCell>
        <mxCell id="QoN-G7_0WRLcgAnrhixv-13" value="Code" style="shape=partialRectangle;connectable=0;fillColor=none;top=0;left=0;bottom=0;right=0;align=left;spacingLeft=6;overflow=hidden;html=1;whiteSpace=wrap;" parent="QoN-G7_0WRLcgAnrhixv-11" vertex="1">
          <mxGeometry x="130" width="110" height="20" as="geometry">
            <mxRectangle width="110" height="20" as="alternateBounds" />
          </mxGeometry>
        </mxCell>
        <mxCell id="3jplrITxi0IfMQACSsrw-1" value="EMPLOYEE_PHONE" style="shape=table;startSize=30;container=1;collapsible=1;childLayout=tableLayout;fixedRows=1;rowLines=0;fontStyle=1;align=center;resizeLast=1;html=1;fillColor=#CCCCFF;" parent="1" vertex="1">
          <mxGeometry x="277.5" y="-730" width="245" height="80" as="geometry" />
        </mxCell>
        <mxCell id="3jplrITxi0IfMQACSsrw-2" value="" style="shape=tableRow;horizontal=0;startSize=0;swimlaneHead=0;swimlaneBody=0;fillColor=#FFCCCC;collapsible=0;dropTarget=0;points=[[0,0.5],[1,0.5]];portConstraint=eastwest;top=0;left=0;right=0;bottom=1;" parent="3jplrITxi0IfMQACSsrw-1" vertex="1">
          <mxGeometry y="30" width="245" height="30" as="geometry" />
        </mxCell>
        <mxCell id="3jplrITxi0IfMQACSsrw-3" value="PK, FK(number(10))" style="shape=partialRectangle;connectable=0;fillColor=none;top=0;left=0;bottom=0;right=0;fontStyle=1;overflow=hidden;whiteSpace=wrap;html=1;" parent="3jplrITxi0IfMQACSsrw-2" vertex="1">
          <mxGeometry width="130" height="30" as="geometry">
            <mxRectangle width="130" height="30" as="alternateBounds" />
          </mxGeometry>
        </mxCell>
        <mxCell id="3jplrITxi0IfMQACSsrw-4" value="Employee_id" style="shape=partialRectangle;connectable=0;fillColor=none;top=0;left=0;bottom=0;right=0;align=left;spacingLeft=6;fontStyle=5;overflow=hidden;whiteSpace=wrap;html=1;" parent="3jplrITxi0IfMQACSsrw-2" vertex="1">
          <mxGeometry x="130" width="115" height="30" as="geometry">
            <mxRectangle width="115" height="30" as="alternateBounds" />
          </mxGeometry>
        </mxCell>
        <mxCell id="3jplrITxi0IfMQACSsrw-5" value="" style="shape=tableRow;horizontal=0;startSize=0;swimlaneHead=0;swimlaneBody=0;fillColor=none;collapsible=0;dropTarget=0;points=[[0,0.5],[1,0.5]];portConstraint=eastwest;top=0;left=0;right=0;bottom=0;" parent="3jplrITxi0IfMQACSsrw-1" vertex="1">
          <mxGeometry y="60" width="245" height="20" as="geometry" />
        </mxCell>
        <mxCell id="3jplrITxi0IfMQACSsrw-6" value="&lt;b&gt;PK(number(10))&lt;/b&gt;" style="shape=partialRectangle;connectable=0;fillColor=#FFCCCC;top=0;left=0;bottom=0;right=0;editable=1;overflow=hidden;whiteSpace=wrap;html=1;" parent="3jplrITxi0IfMQACSsrw-5" vertex="1">
          <mxGeometry width="130" height="20" as="geometry">
            <mxRectangle width="130" height="20" as="alternateBounds" />
          </mxGeometry>
        </mxCell>
        <mxCell id="3jplrITxi0IfMQACSsrw-7" value="&lt;b&gt;&lt;u&gt;Phone&lt;/u&gt;&lt;/b&gt;" style="shape=partialRectangle;connectable=0;fillColor=#FFCCCC;top=0;left=0;bottom=0;right=0;align=left;spacingLeft=6;overflow=hidden;whiteSpace=wrap;html=1;" parent="3jplrITxi0IfMQACSsrw-5" vertex="1">
          <mxGeometry x="130" width="115" height="20" as="geometry">
            <mxRectangle width="115" height="20" as="alternateBounds" />
          </mxGeometry>
        </mxCell>
        <mxCell id="g55c2E3v26N3sn6DxVoI-14" value="ACCOUNT" style="shape=table;startSize=30;container=1;collapsible=1;childLayout=tableLayout;fixedRows=1;rowLines=0;fontStyle=1;align=center;resizeLast=1;html=1;fillColor=#CCE5FF;" parent="1" vertex="1">
          <mxGeometry x="-406" y="-520" width="221" height="130" as="geometry">
            <mxRectangle x="40" y="-1000" width="80" height="30" as="alternateBounds" />
          </mxGeometry>
        </mxCell>
        <mxCell id="g55c2E3v26N3sn6DxVoI-15" value="" style="shape=tableRow;horizontal=0;startSize=0;swimlaneHead=0;swimlaneBody=0;fillColor=#FFCCCC;collapsible=0;dropTarget=0;points=[[0,0.5],[1,0.5]];portConstraint=eastwest;top=0;left=0;right=0;bottom=1;" parent="g55c2E3v26N3sn6DxVoI-14" vertex="1">
          <mxGeometry y="30" width="221" height="30" as="geometry" />
        </mxCell>
        <mxCell id="g55c2E3v26N3sn6DxVoI-16" value="PK(number(5))" style="shape=partialRectangle;connectable=0;fillColor=none;top=0;left=0;bottom=0;right=0;fontStyle=1;overflow=hidden;whiteSpace=wrap;html=1;" parent="g55c2E3v26N3sn6DxVoI-15" vertex="1">
          <mxGeometry width="90" height="30" as="geometry">
            <mxRectangle width="90" height="30" as="alternateBounds" />
          </mxGeometry>
        </mxCell>
        <mxCell id="g55c2E3v26N3sn6DxVoI-17" value="Account_Number" style="shape=partialRectangle;connectable=0;fillColor=none;top=0;left=0;bottom=0;right=0;align=left;spacingLeft=6;fontStyle=5;overflow=hidden;whiteSpace=wrap;html=1;" parent="g55c2E3v26N3sn6DxVoI-15" vertex="1">
          <mxGeometry x="90" width="131" height="30" as="geometry">
            <mxRectangle width="131" height="30" as="alternateBounds" />
          </mxGeometry>
        </mxCell>
        <mxCell id="g55c2E3v26N3sn6DxVoI-18" value="" style="shape=tableRow;horizontal=0;startSize=0;swimlaneHead=0;swimlaneBody=0;fillColor=none;collapsible=0;dropTarget=0;points=[[0,0.5],[1,0.5]];portConstraint=eastwest;top=0;left=0;right=0;bottom=0;" parent="g55c2E3v26N3sn6DxVoI-14" vertex="1">
          <mxGeometry y="60" width="221" height="30" as="geometry" />
        </mxCell>
        <mxCell id="g55c2E3v26N3sn6DxVoI-19" value="varchar2(20)" style="shape=partialRectangle;connectable=0;fillColor=none;top=0;left=0;bottom=0;right=0;editable=1;overflow=hidden;whiteSpace=wrap;html=1;" parent="g55c2E3v26N3sn6DxVoI-18" vertex="1">
          <mxGeometry width="90" height="30" as="geometry">
            <mxRectangle width="90" height="30" as="alternateBounds" />
          </mxGeometry>
        </mxCell>
        <mxCell id="g55c2E3v26N3sn6DxVoI-20" value="Account_Name" style="shape=partialRectangle;connectable=0;fillColor=none;top=0;left=0;bottom=0;right=0;align=left;spacingLeft=6;overflow=hidden;whiteSpace=wrap;html=1;" parent="g55c2E3v26N3sn6DxVoI-18" vertex="1">
          <mxGeometry x="90" width="131" height="30" as="geometry">
            <mxRectangle width="131" height="30" as="alternateBounds" />
          </mxGeometry>
        </mxCell>
        <mxCell id="g55c2E3v26N3sn6DxVoI-21" value="" style="shape=tableRow;horizontal=0;startSize=0;swimlaneHead=0;swimlaneBody=0;fillColor=none;collapsible=0;dropTarget=0;points=[[0,0.5],[1,0.5]];portConstraint=eastwest;top=0;left=0;right=0;bottom=0;" parent="g55c2E3v26N3sn6DxVoI-14" vertex="1">
          <mxGeometry y="90" width="221" height="20" as="geometry" />
        </mxCell>
        <mxCell id="g55c2E3v26N3sn6DxVoI-22" value="number(15)" style="shape=partialRectangle;connectable=0;fillColor=none;top=0;left=0;bottom=0;right=0;editable=1;overflow=hidden;whiteSpace=wrap;html=1;" parent="g55c2E3v26N3sn6DxVoI-21" vertex="1">
          <mxGeometry width="90" height="20" as="geometry">
            <mxRectangle width="90" height="20" as="alternateBounds" />
          </mxGeometry>
        </mxCell>
        <mxCell id="g55c2E3v26N3sn6DxVoI-23" value="Account_Balance" style="shape=partialRectangle;connectable=0;fillColor=none;top=0;left=0;bottom=0;right=0;align=left;spacingLeft=6;overflow=hidden;whiteSpace=wrap;html=1;" parent="g55c2E3v26N3sn6DxVoI-21" vertex="1">
          <mxGeometry x="90" width="131" height="20" as="geometry">
            <mxRectangle width="131" height="20" as="alternateBounds" />
          </mxGeometry>
        </mxCell>
        <mxCell id="1P1fzkHihtGlbBbBqZYM-1" value="" style="shape=tableRow;horizontal=0;startSize=0;swimlaneHead=0;swimlaneBody=0;fillColor=#E6FFCC;collapsible=0;dropTarget=0;points=[[0,0.5],[1,0.5]];portConstraint=eastwest;top=0;left=0;right=0;bottom=0;" parent="g55c2E3v26N3sn6DxVoI-14" vertex="1">
          <mxGeometry y="110" width="221" height="20" as="geometry" />
        </mxCell>
        <mxCell id="1P1fzkHihtGlbBbBqZYM-2" value="FK" style="shape=partialRectangle;connectable=0;fillColor=none;top=0;left=0;bottom=0;right=0;editable=1;overflow=hidden;whiteSpace=wrap;html=1;" parent="1P1fzkHihtGlbBbBqZYM-1" vertex="1">
          <mxGeometry width="90" height="20" as="geometry">
            <mxRectangle width="90" height="20" as="alternateBounds" />
          </mxGeometry>
        </mxCell>
        <mxCell id="1P1fzkHihtGlbBbBqZYM-3" value="Branch_id" style="shape=partialRectangle;connectable=0;fillColor=none;top=0;left=0;bottom=0;right=0;align=left;spacingLeft=6;overflow=hidden;whiteSpace=wrap;html=1;" parent="1P1fzkHihtGlbBbBqZYM-1" vertex="1">
          <mxGeometry x="90" width="131" height="20" as="geometry">
            <mxRectangle width="131" height="20" as="alternateBounds" />
          </mxGeometry>
        </mxCell>
        <mxCell id="SOSMVRtKAyCAFMjpDp3c-1" value="LOAN" style="shape=table;startSize=30;container=1;collapsible=1;childLayout=tableLayout;fixedRows=1;rowLines=0;fontStyle=1;align=center;resizeLast=1;html=1;fillColor=#CCE5FF;" parent="1" vertex="1">
          <mxGeometry x="145" y="-520" width="221" height="130" as="geometry">
            <mxRectangle x="40" y="-1000" width="80" height="30" as="alternateBounds" />
          </mxGeometry>
        </mxCell>
        <mxCell id="SOSMVRtKAyCAFMjpDp3c-2" value="" style="shape=tableRow;horizontal=0;startSize=0;swimlaneHead=0;swimlaneBody=0;fillColor=#FFCCCC;collapsible=0;dropTarget=0;points=[[0,0.5],[1,0.5]];portConstraint=eastwest;top=0;left=0;right=0;bottom=1;" parent="SOSMVRtKAyCAFMjpDp3c-1" vertex="1">
          <mxGeometry y="30" width="221" height="30" as="geometry" />
        </mxCell>
        <mxCell id="SOSMVRtKAyCAFMjpDp3c-3" value="PK(number(5))" style="shape=partialRectangle;connectable=0;fillColor=none;top=0;left=0;bottom=0;right=0;fontStyle=1;overflow=hidden;whiteSpace=wrap;html=1;" parent="SOSMVRtKAyCAFMjpDp3c-2" vertex="1">
          <mxGeometry width="95" height="30" as="geometry">
            <mxRectangle width="95" height="30" as="alternateBounds" />
          </mxGeometry>
        </mxCell>
        <mxCell id="SOSMVRtKAyCAFMjpDp3c-4" value="Loan_Number" style="shape=partialRectangle;connectable=0;fillColor=none;top=0;left=0;bottom=0;right=0;align=left;spacingLeft=6;fontStyle=5;overflow=hidden;whiteSpace=wrap;html=1;" parent="SOSMVRtKAyCAFMjpDp3c-2" vertex="1">
          <mxGeometry x="95" width="126" height="30" as="geometry">
            <mxRectangle width="126" height="30" as="alternateBounds" />
          </mxGeometry>
        </mxCell>
        <mxCell id="SOSMVRtKAyCAFMjpDp3c-5" value="" style="shape=tableRow;horizontal=0;startSize=0;swimlaneHead=0;swimlaneBody=0;fillColor=none;collapsible=0;dropTarget=0;points=[[0,0.5],[1,0.5]];portConstraint=eastwest;top=0;left=0;right=0;bottom=0;" parent="SOSMVRtKAyCAFMjpDp3c-1" vertex="1">
          <mxGeometry y="60" width="221" height="30" as="geometry" />
        </mxCell>
        <mxCell id="SOSMVRtKAyCAFMjpDp3c-6" value="varchar2(20)" style="shape=partialRectangle;connectable=0;fillColor=none;top=0;left=0;bottom=0;right=0;editable=1;overflow=hidden;whiteSpace=wrap;html=1;" parent="SOSMVRtKAyCAFMjpDp3c-5" vertex="1">
          <mxGeometry width="95" height="30" as="geometry">
            <mxRectangle width="95" height="30" as="alternateBounds" />
          </mxGeometry>
        </mxCell>
        <mxCell id="SOSMVRtKAyCAFMjpDp3c-7" value="Loan_Type" style="shape=partialRectangle;connectable=0;fillColor=none;top=0;left=0;bottom=0;right=0;align=left;spacingLeft=6;overflow=hidden;whiteSpace=wrap;html=1;" parent="SOSMVRtKAyCAFMjpDp3c-5" vertex="1">
          <mxGeometry x="95" width="126" height="30" as="geometry">
            <mxRectangle width="126" height="30" as="alternateBounds" />
          </mxGeometry>
        </mxCell>
        <mxCell id="SOSMVRtKAyCAFMjpDp3c-8" value="" style="shape=tableRow;horizontal=0;startSize=0;swimlaneHead=0;swimlaneBody=0;fillColor=none;collapsible=0;dropTarget=0;points=[[0,0.5],[1,0.5]];portConstraint=eastwest;top=0;left=0;right=0;bottom=0;" parent="SOSMVRtKAyCAFMjpDp3c-1" vertex="1">
          <mxGeometry y="90" width="221" height="20" as="geometry" />
        </mxCell>
        <mxCell id="SOSMVRtKAyCAFMjpDp3c-9" value="number(15)" style="shape=partialRectangle;connectable=0;fillColor=none;top=0;left=0;bottom=0;right=0;editable=1;overflow=hidden;whiteSpace=wrap;html=1;" parent="SOSMVRtKAyCAFMjpDp3c-8" vertex="1">
          <mxGeometry width="95" height="20" as="geometry">
            <mxRectangle width="95" height="20" as="alternateBounds" />
          </mxGeometry>
        </mxCell>
        <mxCell id="SOSMVRtKAyCAFMjpDp3c-10" value="Loan_Amount" style="shape=partialRectangle;connectable=0;fillColor=none;top=0;left=0;bottom=0;right=0;align=left;spacingLeft=6;overflow=hidden;whiteSpace=wrap;html=1;" parent="SOSMVRtKAyCAFMjpDp3c-8" vertex="1">
          <mxGeometry x="95" width="126" height="20" as="geometry">
            <mxRectangle width="126" height="20" as="alternateBounds" />
          </mxGeometry>
        </mxCell>
        <mxCell id="1P1fzkHihtGlbBbBqZYM-14" value="" style="shape=tableRow;horizontal=0;startSize=0;swimlaneHead=0;swimlaneBody=0;fillColor=#E6FFCC;collapsible=0;dropTarget=0;points=[[0,0.5],[1,0.5]];portConstraint=eastwest;top=0;left=0;right=0;bottom=0;" parent="SOSMVRtKAyCAFMjpDp3c-1" vertex="1">
          <mxGeometry y="110" width="221" height="20" as="geometry" />
        </mxCell>
        <mxCell id="1P1fzkHihtGlbBbBqZYM-15" value="FK" style="shape=partialRectangle;connectable=0;fillColor=none;top=0;left=0;bottom=0;right=0;editable=1;overflow=hidden;whiteSpace=wrap;html=1;" parent="1P1fzkHihtGlbBbBqZYM-14" vertex="1">
          <mxGeometry width="95" height="20" as="geometry">
            <mxRectangle width="95" height="20" as="alternateBounds" />
          </mxGeometry>
        </mxCell>
        <mxCell id="1P1fzkHihtGlbBbBqZYM-16" value="Branch_id" style="shape=partialRectangle;connectable=0;fillColor=none;top=0;left=0;bottom=0;right=0;align=left;spacingLeft=6;overflow=hidden;whiteSpace=wrap;html=1;" parent="1P1fzkHihtGlbBbBqZYM-14" vertex="1">
          <mxGeometry x="95" width="126" height="20" as="geometry">
            <mxRectangle width="126" height="20" as="alternateBounds" />
          </mxGeometry>
        </mxCell>
        <mxCell id="l16qKihF7fjvL9VKBkQa-1" value="CUSTOMER" style="shape=table;startSize=30;container=1;collapsible=1;childLayout=tableLayout;fixedRows=1;rowLines=0;fontStyle=1;align=center;resizeLast=1;html=1;fillColor=#CCE5FF;" parent="1" vertex="1">
          <mxGeometry x="-75" y="-240" width="220" height="150" as="geometry" />
        </mxCell>
        <mxCell id="l16qKihF7fjvL9VKBkQa-2" value="" style="shape=tableRow;horizontal=0;startSize=0;swimlaneHead=0;swimlaneBody=0;fillColor=#FFCCCC;collapsible=0;dropTarget=0;points=[[0,0.5],[1,0.5]];portConstraint=eastwest;top=0;left=0;right=0;bottom=1;" parent="l16qKihF7fjvL9VKBkQa-1" vertex="1">
          <mxGeometry y="30" width="220" height="30" as="geometry" />
        </mxCell>
        <mxCell id="l16qKihF7fjvL9VKBkQa-3" value="PK(number(10))" style="shape=partialRectangle;connectable=0;fillColor=none;top=0;left=0;bottom=0;right=0;fontStyle=1;overflow=hidden;whiteSpace=wrap;html=1;" parent="l16qKihF7fjvL9VKBkQa-2" vertex="1">
          <mxGeometry width="99" height="30" as="geometry">
            <mxRectangle width="99" height="30" as="alternateBounds" />
          </mxGeometry>
        </mxCell>
        <mxCell id="l16qKihF7fjvL9VKBkQa-4" value="Customer_id" style="shape=partialRectangle;connectable=0;fillColor=none;top=0;left=0;bottom=0;right=0;align=left;spacingLeft=6;fontStyle=5;overflow=hidden;whiteSpace=wrap;html=1;" parent="l16qKihF7fjvL9VKBkQa-2" vertex="1">
          <mxGeometry x="99" width="121" height="30" as="geometry">
            <mxRectangle width="121" height="30" as="alternateBounds" />
          </mxGeometry>
        </mxCell>
        <mxCell id="l16qKihF7fjvL9VKBkQa-5" value="" style="shape=tableRow;horizontal=0;startSize=0;swimlaneHead=0;swimlaneBody=0;fillColor=none;collapsible=0;dropTarget=0;points=[[0,0.5],[1,0.5]];portConstraint=eastwest;top=0;left=0;right=0;bottom=0;" parent="l16qKihF7fjvL9VKBkQa-1" vertex="1">
          <mxGeometry y="60" width="220" height="30" as="geometry" />
        </mxCell>
        <mxCell id="l16qKihF7fjvL9VKBkQa-6" value="varchar2(20)" style="shape=partialRectangle;connectable=0;fillColor=none;top=0;left=0;bottom=0;right=0;editable=1;overflow=hidden;whiteSpace=wrap;html=1;" parent="l16qKihF7fjvL9VKBkQa-5" vertex="1">
          <mxGeometry width="99" height="30" as="geometry">
            <mxRectangle width="99" height="30" as="alternateBounds" />
          </mxGeometry>
        </mxCell>
        <mxCell id="l16qKihF7fjvL9VKBkQa-7" value="First_Name" style="shape=partialRectangle;connectable=0;fillColor=none;top=0;left=0;bottom=0;right=0;align=left;spacingLeft=6;overflow=hidden;whiteSpace=wrap;html=1;" parent="l16qKihF7fjvL9VKBkQa-5" vertex="1">
          <mxGeometry x="99" width="121" height="30" as="geometry">
            <mxRectangle width="121" height="30" as="alternateBounds" />
          </mxGeometry>
        </mxCell>
        <mxCell id="l16qKihF7fjvL9VKBkQa-8" value="" style="shape=tableRow;horizontal=0;startSize=0;swimlaneHead=0;swimlaneBody=0;fillColor=none;collapsible=0;dropTarget=0;points=[[0,0.5],[1,0.5]];portConstraint=eastwest;top=0;left=0;right=0;bottom=0;" parent="l16qKihF7fjvL9VKBkQa-1" vertex="1">
          <mxGeometry y="90" width="220" height="30" as="geometry" />
        </mxCell>
        <mxCell id="l16qKihF7fjvL9VKBkQa-9" value="varchar2(20)" style="shape=partialRectangle;connectable=0;fillColor=none;top=0;left=0;bottom=0;right=0;editable=1;overflow=hidden;whiteSpace=wrap;html=1;" parent="l16qKihF7fjvL9VKBkQa-8" vertex="1">
          <mxGeometry width="99" height="30" as="geometry">
            <mxRectangle width="99" height="30" as="alternateBounds" />
          </mxGeometry>
        </mxCell>
        <mxCell id="l16qKihF7fjvL9VKBkQa-10" value="Last_Name" style="shape=partialRectangle;connectable=0;fillColor=none;top=0;left=0;bottom=0;right=0;align=left;spacingLeft=6;overflow=hidden;whiteSpace=wrap;html=1;" parent="l16qKihF7fjvL9VKBkQa-8" vertex="1">
          <mxGeometry x="99" width="121" height="30" as="geometry">
            <mxRectangle width="121" height="30" as="alternateBounds" />
          </mxGeometry>
        </mxCell>
        <mxCell id="l16qKihF7fjvL9VKBkQa-11" value="" style="shape=tableRow;horizontal=0;startSize=0;swimlaneHead=0;swimlaneBody=0;fillColor=none;collapsible=0;dropTarget=0;points=[[0,0.5],[1,0.5]];portConstraint=eastwest;top=0;left=0;right=0;bottom=0;" parent="l16qKihF7fjvL9VKBkQa-1" vertex="1">
          <mxGeometry y="120" width="220" height="30" as="geometry" />
        </mxCell>
        <mxCell id="l16qKihF7fjvL9VKBkQa-12" value="varchar2(50)" style="shape=partialRectangle;connectable=0;fillColor=none;top=0;left=0;bottom=0;right=0;editable=1;overflow=hidden;whiteSpace=wrap;html=1;" parent="l16qKihF7fjvL9VKBkQa-11" vertex="1">
          <mxGeometry width="99" height="30" as="geometry">
            <mxRectangle width="99" height="30" as="alternateBounds" />
          </mxGeometry>
        </mxCell>
        <mxCell id="l16qKihF7fjvL9VKBkQa-13" value="Address" style="shape=partialRectangle;connectable=0;fillColor=none;top=0;left=0;bottom=0;right=0;align=left;spacingLeft=6;overflow=hidden;whiteSpace=wrap;html=1;" parent="l16qKihF7fjvL9VKBkQa-11" vertex="1">
          <mxGeometry x="99" width="121" height="30" as="geometry">
            <mxRectangle width="121" height="30" as="alternateBounds" />
          </mxGeometry>
        </mxCell>
        <mxCell id="MXPw2U4ZJ_XwoXFPCsA4-1" value="RELATED_DEPENDENT" style="shape=table;startSize=30;container=1;collapsible=1;childLayout=tableLayout;fixedRows=1;rowLines=0;fontStyle=1;align=center;resizeLast=1;html=1;fillColor=#FFCCFF;" parent="1" vertex="1">
          <mxGeometry x="265" y="-200" width="220" height="190" as="geometry" />
        </mxCell>
        <mxCell id="MXPw2U4ZJ_XwoXFPCsA4-2" value="" style="shape=tableRow;horizontal=0;startSize=0;swimlaneHead=0;swimlaneBody=0;fillColor=#FFCCCC;collapsible=0;dropTarget=0;points=[[0,0.5],[1,0.5]];portConstraint=eastwest;top=0;left=0;right=0;bottom=1;" parent="MXPw2U4ZJ_XwoXFPCsA4-1" vertex="1">
          <mxGeometry y="30" width="220" height="30" as="geometry" />
        </mxCell>
        <mxCell id="MXPw2U4ZJ_XwoXFPCsA4-3" value="PK(number(10))" style="shape=partialRectangle;connectable=0;fillColor=none;top=0;left=0;bottom=0;right=0;fontStyle=1;overflow=hidden;whiteSpace=wrap;html=1;" parent="MXPw2U4ZJ_XwoXFPCsA4-2" vertex="1">
          <mxGeometry width="100" height="30" as="geometry">
            <mxRectangle width="100" height="30" as="alternateBounds" />
          </mxGeometry>
        </mxCell>
        <mxCell id="MXPw2U4ZJ_XwoXFPCsA4-4" value="Customer_id" style="shape=partialRectangle;connectable=0;fillColor=none;top=0;left=0;bottom=0;right=0;align=left;spacingLeft=6;fontStyle=5;overflow=hidden;whiteSpace=wrap;html=1;" parent="MXPw2U4ZJ_XwoXFPCsA4-2" vertex="1">
          <mxGeometry x="100" width="120" height="30" as="geometry">
            <mxRectangle width="120" height="30" as="alternateBounds" />
          </mxGeometry>
        </mxCell>
        <mxCell id="MXPw2U4ZJ_XwoXFPCsA4-5" value="" style="shape=tableRow;horizontal=0;startSize=0;swimlaneHead=0;swimlaneBody=0;fillColor=#FFCCCC;collapsible=0;dropTarget=0;points=[[0,0.5],[1,0.5]];portConstraint=eastwest;top=0;left=0;right=0;bottom=0;" parent="MXPw2U4ZJ_XwoXFPCsA4-1" vertex="1">
          <mxGeometry y="60" width="220" height="30" as="geometry" />
        </mxCell>
        <mxCell id="MXPw2U4ZJ_XwoXFPCsA4-6" value="&lt;b&gt;PK(varchar2(20))&lt;/b&gt;" style="shape=partialRectangle;connectable=0;fillColor=none;top=0;left=0;bottom=0;right=0;editable=1;overflow=hidden;whiteSpace=wrap;html=1;" parent="MXPw2U4ZJ_XwoXFPCsA4-5" vertex="1">
          <mxGeometry width="100" height="30" as="geometry">
            <mxRectangle width="100" height="30" as="alternateBounds" />
          </mxGeometry>
        </mxCell>
        <mxCell id="MXPw2U4ZJ_XwoXFPCsA4-7" value="&lt;u&gt;Name&lt;/u&gt;" style="shape=partialRectangle;connectable=0;fillColor=none;top=0;left=0;bottom=0;right=0;align=left;spacingLeft=6;overflow=hidden;whiteSpace=wrap;html=1;" parent="MXPw2U4ZJ_XwoXFPCsA4-5" vertex="1">
          <mxGeometry x="100" width="120" height="30" as="geometry">
            <mxRectangle width="120" height="30" as="alternateBounds" />
          </mxGeometry>
        </mxCell>
        <mxCell id="MXPw2U4ZJ_XwoXFPCsA4-8" value="" style="shape=tableRow;horizontal=0;startSize=0;swimlaneHead=0;swimlaneBody=0;fillColor=none;collapsible=0;dropTarget=0;points=[[0,0.5],[1,0.5]];portConstraint=eastwest;top=0;left=0;right=0;bottom=0;" parent="MXPw2U4ZJ_XwoXFPCsA4-1" vertex="1">
          <mxGeometry y="90" width="220" height="30" as="geometry" />
        </mxCell>
        <mxCell id="MXPw2U4ZJ_XwoXFPCsA4-9" value="varchar2(8)" style="shape=partialRectangle;connectable=0;fillColor=none;top=0;left=0;bottom=0;right=0;editable=1;overflow=hidden;whiteSpace=wrap;html=1;" parent="MXPw2U4ZJ_XwoXFPCsA4-8" vertex="1">
          <mxGeometry width="100" height="30" as="geometry">
            <mxRectangle width="100" height="30" as="alternateBounds" />
          </mxGeometry>
        </mxCell>
        <mxCell id="MXPw2U4ZJ_XwoXFPCsA4-10" value="Sex" style="shape=partialRectangle;connectable=0;fillColor=none;top=0;left=0;bottom=0;right=0;align=left;spacingLeft=6;overflow=hidden;whiteSpace=wrap;html=1;" parent="MXPw2U4ZJ_XwoXFPCsA4-8" vertex="1">
          <mxGeometry x="100" width="120" height="30" as="geometry">
            <mxRectangle width="120" height="30" as="alternateBounds" />
          </mxGeometry>
        </mxCell>
        <mxCell id="MXPw2U4ZJ_XwoXFPCsA4-11" value="" style="shape=tableRow;horizontal=0;startSize=0;swimlaneHead=0;swimlaneBody=0;fillColor=none;collapsible=0;dropTarget=0;points=[[0,0.5],[1,0.5]];portConstraint=eastwest;top=0;left=0;right=0;bottom=0;" parent="MXPw2U4ZJ_XwoXFPCsA4-1" vertex="1">
          <mxGeometry y="120" width="220" height="40" as="geometry" />
        </mxCell>
        <mxCell id="MXPw2U4ZJ_XwoXFPCsA4-12" value="date" style="shape=partialRectangle;connectable=0;fillColor=none;top=0;left=0;bottom=0;right=0;editable=1;overflow=hidden;whiteSpace=wrap;html=1;" parent="MXPw2U4ZJ_XwoXFPCsA4-11" vertex="1">
          <mxGeometry width="100" height="40" as="geometry">
            <mxRectangle width="100" height="40" as="alternateBounds" />
          </mxGeometry>
        </mxCell>
        <mxCell id="MXPw2U4ZJ_XwoXFPCsA4-13" value="Date_of_Birth" style="shape=partialRectangle;connectable=0;fillColor=none;top=0;left=0;bottom=0;right=0;align=left;spacingLeft=6;overflow=hidden;whiteSpace=wrap;html=1;" parent="MXPw2U4ZJ_XwoXFPCsA4-11" vertex="1">
          <mxGeometry x="100" width="120" height="40" as="geometry">
            <mxRectangle width="120" height="40" as="alternateBounds" />
          </mxGeometry>
        </mxCell>
        <mxCell id="J1LD9H4D1hN7KoR7IK5q-1" value="" style="shape=tableRow;horizontal=0;startSize=0;swimlaneHead=0;swimlaneBody=0;fillColor=none;collapsible=0;dropTarget=0;points=[[0,0.5],[1,0.5]];portConstraint=eastwest;top=0;left=0;right=0;bottom=0;" parent="MXPw2U4ZJ_XwoXFPCsA4-1" vertex="1">
          <mxGeometry y="160" width="220" height="30" as="geometry" />
        </mxCell>
        <mxCell id="J1LD9H4D1hN7KoR7IK5q-2" value="varchar2(15)" style="shape=partialRectangle;connectable=0;fillColor=none;top=0;left=0;bottom=0;right=0;editable=1;overflow=hidden;" parent="J1LD9H4D1hN7KoR7IK5q-1" vertex="1">
          <mxGeometry width="100" height="30" as="geometry">
            <mxRectangle width="100" height="30" as="alternateBounds" />
          </mxGeometry>
        </mxCell>
        <mxCell id="J1LD9H4D1hN7KoR7IK5q-3" value="Relationship" style="shape=partialRectangle;connectable=0;fillColor=none;top=0;left=0;bottom=0;right=0;align=left;spacingLeft=6;overflow=hidden;" parent="J1LD9H4D1hN7KoR7IK5q-1" vertex="1">
          <mxGeometry x="100" width="120" height="30" as="geometry">
            <mxRectangle width="120" height="30" as="alternateBounds" />
          </mxGeometry>
        </mxCell>
        <mxCell id="pLJuWcz5E4TZIk09h9MU-14" value="HOLDS" style="shape=table;startSize=30;container=1;collapsible=1;childLayout=tableLayout;fixedRows=1;rowLines=0;fontStyle=1;align=center;resizeLast=1;html=1;whiteSpace=wrap;fillColor=#E5CCFF;" parent="1" vertex="1">
          <mxGeometry x="-460" y="-320" width="280" height="90" as="geometry" />
        </mxCell>
        <mxCell id="pLJuWcz5E4TZIk09h9MU-15" value="" style="shape=tableRow;horizontal=0;startSize=0;swimlaneHead=0;swimlaneBody=0;fillColor=#FFCCCC;collapsible=0;dropTarget=0;points=[[0,0.5],[1,0.5]];portConstraint=eastwest;top=0;left=0;right=0;bottom=0;html=1;" parent="pLJuWcz5E4TZIk09h9MU-14" vertex="1">
          <mxGeometry y="30" width="280" height="30" as="geometry" />
        </mxCell>
        <mxCell id="pLJuWcz5E4TZIk09h9MU-16" value="PK,FK1((number(5))" style="shape=partialRectangle;connectable=0;fillColor=none;top=0;left=0;bottom=0;right=0;fontStyle=1;overflow=hidden;html=1;whiteSpace=wrap;" parent="pLJuWcz5E4TZIk09h9MU-15" vertex="1">
          <mxGeometry width="130" height="30" as="geometry">
            <mxRectangle width="130" height="30" as="alternateBounds" />
          </mxGeometry>
        </mxCell>
        <mxCell id="pLJuWcz5E4TZIk09h9MU-17" value="Account_Number" style="shape=partialRectangle;connectable=0;fillColor=none;top=0;left=0;bottom=0;right=0;align=left;spacingLeft=6;fontStyle=5;overflow=hidden;html=1;whiteSpace=wrap;" parent="pLJuWcz5E4TZIk09h9MU-15" vertex="1">
          <mxGeometry x="130" width="150" height="30" as="geometry">
            <mxRectangle width="150" height="30" as="alternateBounds" />
          </mxGeometry>
        </mxCell>
        <mxCell id="pLJuWcz5E4TZIk09h9MU-18" value="" style="shape=tableRow;horizontal=0;startSize=0;swimlaneHead=0;swimlaneBody=0;fillColor=#FFE6CC;collapsible=0;dropTarget=0;points=[[0,0.5],[1,0.5]];portConstraint=eastwest;top=0;left=0;right=0;bottom=1;html=1;" parent="pLJuWcz5E4TZIk09h9MU-14" vertex="1">
          <mxGeometry y="60" width="280" height="30" as="geometry" />
        </mxCell>
        <mxCell id="pLJuWcz5E4TZIk09h9MU-19" value="PK,FK2(number(10))" style="shape=partialRectangle;connectable=0;fillColor=none;top=0;left=0;bottom=0;right=0;fontStyle=1;overflow=hidden;html=1;whiteSpace=wrap;" parent="pLJuWcz5E4TZIk09h9MU-18" vertex="1">
          <mxGeometry width="130" height="30" as="geometry">
            <mxRectangle width="130" height="30" as="alternateBounds" />
          </mxGeometry>
        </mxCell>
        <mxCell id="pLJuWcz5E4TZIk09h9MU-20" value="Customer_id" style="shape=partialRectangle;connectable=0;fillColor=none;top=0;left=0;bottom=0;right=0;align=left;spacingLeft=6;fontStyle=5;overflow=hidden;html=1;whiteSpace=wrap;" parent="pLJuWcz5E4TZIk09h9MU-18" vertex="1">
          <mxGeometry x="130" width="150" height="30" as="geometry">
            <mxRectangle width="150" height="30" as="alternateBounds" />
          </mxGeometry>
        </mxCell>
        <mxCell id="LH91ZTi9v4vnnt-UTlm4-13" style="edgeStyle=orthogonalEdgeStyle;rounded=0;orthogonalLoop=1;jettySize=auto;html=1;entryX=1;entryY=0.5;entryDx=0;entryDy=0;exitX=1;exitY=0.5;exitDx=0;exitDy=0;" parent="1" source="ref0MBZvfdOBOVGkeRCY-2" target="SOSMVRtKAyCAFMjpDp3c-2" edge="1">
          <mxGeometry relative="1" as="geometry" />
        </mxCell>
        <mxCell id="ref0MBZvfdOBOVGkeRCY-1" value="AVAILS" style="shape=table;startSize=30;container=1;collapsible=1;childLayout=tableLayout;fixedRows=1;rowLines=0;fontStyle=1;align=center;resizeLast=1;html=1;whiteSpace=wrap;fillColor=#E5CCFF;" parent="1" vertex="1">
          <mxGeometry x="260" y="-320" width="280" height="90" as="geometry" />
        </mxCell>
        <mxCell id="ref0MBZvfdOBOVGkeRCY-2" value="" style="shape=tableRow;horizontal=0;startSize=0;swimlaneHead=0;swimlaneBody=0;fillColor=#FFCCCC;collapsible=0;dropTarget=0;points=[[0,0.5],[1,0.5]];portConstraint=eastwest;top=0;left=0;right=0;bottom=0;html=1;" parent="ref0MBZvfdOBOVGkeRCY-1" vertex="1">
          <mxGeometry y="30" width="280" height="30" as="geometry" />
        </mxCell>
        <mxCell id="ref0MBZvfdOBOVGkeRCY-3" value="PK,FK1((number(5))" style="shape=partialRectangle;connectable=0;fillColor=none;top=0;left=0;bottom=0;right=0;fontStyle=1;overflow=hidden;html=1;whiteSpace=wrap;" parent="ref0MBZvfdOBOVGkeRCY-2" vertex="1">
          <mxGeometry width="150" height="30" as="geometry">
            <mxRectangle width="150" height="30" as="alternateBounds" />
          </mxGeometry>
        </mxCell>
        <mxCell id="ref0MBZvfdOBOVGkeRCY-4" value="Loan_Number" style="shape=partialRectangle;connectable=0;fillColor=none;top=0;left=0;bottom=0;right=0;align=left;spacingLeft=6;fontStyle=5;overflow=hidden;html=1;whiteSpace=wrap;" parent="ref0MBZvfdOBOVGkeRCY-2" vertex="1">
          <mxGeometry x="150" width="130" height="30" as="geometry">
            <mxRectangle width="130" height="30" as="alternateBounds" />
          </mxGeometry>
        </mxCell>
        <mxCell id="ref0MBZvfdOBOVGkeRCY-5" value="" style="shape=tableRow;horizontal=0;startSize=0;swimlaneHead=0;swimlaneBody=0;fillColor=#FFE6CC;collapsible=0;dropTarget=0;points=[[0,0.5],[1,0.5]];portConstraint=eastwest;top=0;left=0;right=0;bottom=1;html=1;" parent="ref0MBZvfdOBOVGkeRCY-1" vertex="1">
          <mxGeometry y="60" width="280" height="30" as="geometry" />
        </mxCell>
        <mxCell id="ref0MBZvfdOBOVGkeRCY-6" value="PK,FK2(number(10))" style="shape=partialRectangle;connectable=0;fillColor=none;top=0;left=0;bottom=0;right=0;fontStyle=1;overflow=hidden;html=1;whiteSpace=wrap;" parent="ref0MBZvfdOBOVGkeRCY-5" vertex="1">
          <mxGeometry width="150" height="30" as="geometry">
            <mxRectangle width="150" height="30" as="alternateBounds" />
          </mxGeometry>
        </mxCell>
        <mxCell id="ref0MBZvfdOBOVGkeRCY-7" value="Customer_id" style="shape=partialRectangle;connectable=0;fillColor=none;top=0;left=0;bottom=0;right=0;align=left;spacingLeft=6;fontStyle=5;overflow=hidden;html=1;whiteSpace=wrap;" parent="ref0MBZvfdOBOVGkeRCY-5" vertex="1">
          <mxGeometry x="150" width="130" height="30" as="geometry">
            <mxRectangle width="130" height="30" as="alternateBounds" />
          </mxGeometry>
        </mxCell>
        <mxCell id="LH91ZTi9v4vnnt-UTlm4-1" style="edgeStyle=orthogonalEdgeStyle;rounded=0;orthogonalLoop=1;jettySize=auto;html=1;entryX=1;entryY=0.5;entryDx=0;entryDy=0;" parent="1" source="QoN-G7_0WRLcgAnrhixv-11" target="-W1VKgLo_OxEkXONZZAu-2" edge="1">
          <mxGeometry relative="1" as="geometry" />
        </mxCell>
        <mxCell id="LH91ZTi9v4vnnt-UTlm4-7" style="edgeStyle=orthogonalEdgeStyle;rounded=0;orthogonalLoop=1;jettySize=auto;html=1;entryX=-0.004;entryY=0.233;entryDx=0;entryDy=0;entryPerimeter=0;" parent="1" source="1P1fzkHihtGlbBbBqZYM-1" target="toTr2b7wkfYUstjP9SEc-2" edge="1">
          <mxGeometry relative="1" as="geometry">
            <Array as="points">
              <mxPoint x="-175" y="-400" />
              <mxPoint x="-175" y="-673" />
            </Array>
          </mxGeometry>
        </mxCell>
        <mxCell id="LH91ZTi9v4vnnt-UTlm4-9" style="edgeStyle=orthogonalEdgeStyle;rounded=0;orthogonalLoop=1;jettySize=auto;html=1;entryX=0;entryY=0.1;entryDx=0;entryDy=0;entryPerimeter=0;" parent="1" source="pLJuWcz5E4TZIk09h9MU-18" target="l16qKihF7fjvL9VKBkQa-2" edge="1">
          <mxGeometry relative="1" as="geometry" />
        </mxCell>
        <mxCell id="LH91ZTi9v4vnnt-UTlm4-10" style="edgeStyle=orthogonalEdgeStyle;rounded=0;orthogonalLoop=1;jettySize=auto;html=1;entryX=1;entryY=0.333;entryDx=0;entryDy=0;entryPerimeter=0;" parent="1" source="ref0MBZvfdOBOVGkeRCY-5" target="l16qKihF7fjvL9VKBkQa-2" edge="1">
          <mxGeometry relative="1" as="geometry">
            <mxPoint x="165" y="-210" as="targetPoint" />
          </mxGeometry>
        </mxCell>
        <mxCell id="LH91ZTi9v4vnnt-UTlm4-16" style="edgeStyle=orthogonalEdgeStyle;rounded=0;orthogonalLoop=1;jettySize=auto;html=1;entryX=1;entryY=0.5;entryDx=0;entryDy=0;" parent="1" source="pLJuWcz5E4TZIk09h9MU-15" target="g55c2E3v26N3sn6DxVoI-15" edge="1">
          <mxGeometry relative="1" as="geometry">
            <Array as="points">
              <mxPoint x="-135" y="-275" />
              <mxPoint x="-135" y="-475" />
            </Array>
          </mxGeometry>
        </mxCell>
        <mxCell id="LH91ZTi9v4vnnt-UTlm4-20" style="edgeStyle=orthogonalEdgeStyle;rounded=0;orthogonalLoop=1;jettySize=auto;html=1;entryX=1.004;entryY=0.733;entryDx=0;entryDy=0;entryPerimeter=0;exitX=0;exitY=0.5;exitDx=0;exitDy=0;" parent="1" source="1P1fzkHihtGlbBbBqZYM-14" target="toTr2b7wkfYUstjP9SEc-2" edge="1">
          <mxGeometry relative="1" as="geometry">
            <mxPoint x="140" y="-475" as="sourcePoint" />
          </mxGeometry>
        </mxCell>
        <mxCell id="OY2-AsAhdLunTcCxfJHJ-1" value="CUSTOMER_PHONE" style="shape=table;startSize=30;container=1;collapsible=1;childLayout=tableLayout;fixedRows=1;rowLines=0;fontStyle=1;align=center;resizeLast=1;html=1;fillColor=#CCCCFF;" parent="1" vertex="1">
          <mxGeometry x="-75" y="-70" width="265" height="80" as="geometry" />
        </mxCell>
        <mxCell id="OY2-AsAhdLunTcCxfJHJ-2" value="" style="shape=tableRow;horizontal=0;startSize=0;swimlaneHead=0;swimlaneBody=0;fillColor=#FFCCCC;collapsible=0;dropTarget=0;points=[[0,0.5],[1,0.5]];portConstraint=eastwest;top=0;left=0;right=0;bottom=1;" parent="OY2-AsAhdLunTcCxfJHJ-1" vertex="1">
          <mxGeometry y="30" width="265" height="30" as="geometry" />
        </mxCell>
        <mxCell id="OY2-AsAhdLunTcCxfJHJ-3" value="PK(number(10))" style="shape=partialRectangle;connectable=0;fillColor=none;top=0;left=0;bottom=0;right=0;fontStyle=1;overflow=hidden;whiteSpace=wrap;html=1;" parent="OY2-AsAhdLunTcCxfJHJ-2" vertex="1">
          <mxGeometry width="130" height="30" as="geometry">
            <mxRectangle width="130" height="30" as="alternateBounds" />
          </mxGeometry>
        </mxCell>
        <mxCell id="OY2-AsAhdLunTcCxfJHJ-4" value="Customer_id" style="shape=partialRectangle;connectable=0;fillColor=none;top=0;left=0;bottom=0;right=0;align=left;spacingLeft=6;fontStyle=5;overflow=hidden;whiteSpace=wrap;html=1;" parent="OY2-AsAhdLunTcCxfJHJ-2" vertex="1">
          <mxGeometry x="130" width="135" height="30" as="geometry">
            <mxRectangle width="135" height="30" as="alternateBounds" />
          </mxGeometry>
        </mxCell>
        <mxCell id="OY2-AsAhdLunTcCxfJHJ-5" value="" style="shape=tableRow;horizontal=0;startSize=0;swimlaneHead=0;swimlaneBody=0;fillColor=none;collapsible=0;dropTarget=0;points=[[0,0.5],[1,0.5]];portConstraint=eastwest;top=0;left=0;right=0;bottom=0;" parent="OY2-AsAhdLunTcCxfJHJ-1" vertex="1">
          <mxGeometry y="60" width="265" height="20" as="geometry" />
        </mxCell>
        <mxCell id="OY2-AsAhdLunTcCxfJHJ-6" value="number(10)" style="shape=partialRectangle;connectable=0;fillColor=none;top=0;left=0;bottom=0;right=0;editable=1;overflow=hidden;whiteSpace=wrap;html=1;" parent="OY2-AsAhdLunTcCxfJHJ-5" vertex="1">
          <mxGeometry width="130" height="20" as="geometry">
            <mxRectangle width="130" height="20" as="alternateBounds" />
          </mxGeometry>
        </mxCell>
        <mxCell id="OY2-AsAhdLunTcCxfJHJ-7" value="Customer_Phone" style="shape=partialRectangle;connectable=0;fillColor=none;top=0;left=0;bottom=0;right=0;align=left;spacingLeft=6;overflow=hidden;whiteSpace=wrap;html=1;" parent="OY2-AsAhdLunTcCxfJHJ-5" vertex="1">
          <mxGeometry x="130" width="135" height="20" as="geometry">
            <mxRectangle width="135" height="20" as="alternateBounds" />
          </mxGeometry>
        </mxCell>
        <mxCell id="OY2-AsAhdLunTcCxfJHJ-8" style="edgeStyle=orthogonalEdgeStyle;rounded=0;orthogonalLoop=1;jettySize=auto;html=1;entryX=0;entryY=0.733;entryDx=0;entryDy=0;entryPerimeter=0;" parent="1" source="OY2-AsAhdLunTcCxfJHJ-2" target="l16qKihF7fjvL9VKBkQa-2" edge="1">
          <mxGeometry relative="1" as="geometry">
            <Array as="points">
              <mxPoint x="-115" y="-30" />
              <mxPoint x="-115" y="-188" />
            </Array>
          </mxGeometry>
        </mxCell>
        <mxCell id="OY2-AsAhdLunTcCxfJHJ-11" style="edgeStyle=orthogonalEdgeStyle;rounded=0;orthogonalLoop=1;jettySize=auto;html=1;entryX=0.991;entryY=0.767;entryDx=0;entryDy=0;entryPerimeter=0;" parent="1" source="MXPw2U4ZJ_XwoXFPCsA4-2" target="l16qKihF7fjvL9VKBkQa-2" edge="1">
          <mxGeometry relative="1" as="geometry">
            <Array as="points">
              <mxPoint x="215" y="-155" />
              <mxPoint x="215" y="-187" />
            </Array>
          </mxGeometry>
        </mxCell>
        <mxCell id="vx_Fae2RmIYgTupSI5Gv-1" value="EMPLOYEE" style="shape=table;startSize=30;container=1;collapsible=1;childLayout=tableLayout;fixedRows=1;rowLines=0;fontStyle=1;align=center;resizeLast=1;html=1;fillColor=#CCE5FF;" parent="1" vertex="1">
          <mxGeometry x="250" y="-1000" width="270" height="210" as="geometry" />
        </mxCell>
        <mxCell id="vx_Fae2RmIYgTupSI5Gv-2" value="" style="shape=tableRow;horizontal=0;startSize=0;swimlaneHead=0;swimlaneBody=0;fillColor=#FFCCCC;collapsible=0;dropTarget=0;points=[[0,0.5],[1,0.5]];portConstraint=eastwest;top=0;left=0;right=0;bottom=1;" parent="vx_Fae2RmIYgTupSI5Gv-1" vertex="1">
          <mxGeometry y="30" width="270" height="30" as="geometry" />
        </mxCell>
        <mxCell id="vx_Fae2RmIYgTupSI5Gv-3" value="PK(number(10))" style="shape=partialRectangle;connectable=0;fillColor=none;top=0;left=0;bottom=0;right=0;fontStyle=1;overflow=hidden;whiteSpace=wrap;html=1;" parent="vx_Fae2RmIYgTupSI5Gv-2" vertex="1">
          <mxGeometry width="135" height="30" as="geometry">
            <mxRectangle width="135" height="30" as="alternateBounds" />
          </mxGeometry>
        </mxCell>
        <mxCell id="vx_Fae2RmIYgTupSI5Gv-4" value="Employee_id" style="shape=partialRectangle;connectable=0;fillColor=none;top=0;left=0;bottom=0;right=0;align=left;spacingLeft=6;fontStyle=5;overflow=hidden;whiteSpace=wrap;html=1;" parent="vx_Fae2RmIYgTupSI5Gv-2" vertex="1">
          <mxGeometry x="135" width="135" height="30" as="geometry">
            <mxRectangle width="135" height="30" as="alternateBounds" />
          </mxGeometry>
        </mxCell>
        <mxCell id="vx_Fae2RmIYgTupSI5Gv-5" value="" style="shape=tableRow;horizontal=0;startSize=0;swimlaneHead=0;swimlaneBody=0;fillColor=none;collapsible=0;dropTarget=0;points=[[0,0.5],[1,0.5]];portConstraint=eastwest;top=0;left=0;right=0;bottom=0;" parent="vx_Fae2RmIYgTupSI5Gv-1" vertex="1">
          <mxGeometry y="60" width="270" height="30" as="geometry" />
        </mxCell>
        <mxCell id="vx_Fae2RmIYgTupSI5Gv-6" value="date" style="shape=partialRectangle;connectable=0;fillColor=none;top=0;left=0;bottom=0;right=0;editable=1;overflow=hidden;whiteSpace=wrap;html=1;" parent="vx_Fae2RmIYgTupSI5Gv-5" vertex="1">
          <mxGeometry width="135" height="30" as="geometry">
            <mxRectangle width="135" height="30" as="alternateBounds" />
          </mxGeometry>
        </mxCell>
        <mxCell id="vx_Fae2RmIYgTupSI5Gv-7" value="Date_of_join" style="shape=partialRectangle;connectable=0;fillColor=none;top=0;left=0;bottom=0;right=0;align=left;spacingLeft=6;overflow=hidden;whiteSpace=wrap;html=1;" parent="vx_Fae2RmIYgTupSI5Gv-5" vertex="1">
          <mxGeometry x="135" width="135" height="30" as="geometry">
            <mxRectangle width="135" height="30" as="alternateBounds" />
          </mxGeometry>
        </mxCell>
        <mxCell id="vx_Fae2RmIYgTupSI5Gv-8" value="" style="shape=tableRow;horizontal=0;startSize=0;swimlaneHead=0;swimlaneBody=0;fillColor=none;collapsible=0;dropTarget=0;points=[[0,0.5],[1,0.5]];portConstraint=eastwest;top=0;left=0;right=0;bottom=0;" parent="vx_Fae2RmIYgTupSI5Gv-1" vertex="1">
          <mxGeometry y="90" width="270" height="30" as="geometry" />
        </mxCell>
        <mxCell id="vx_Fae2RmIYgTupSI5Gv-9" value="number(3)" style="shape=partialRectangle;connectable=0;fillColor=none;top=0;left=0;bottom=0;right=0;editable=1;overflow=hidden;whiteSpace=wrap;html=1;" parent="vx_Fae2RmIYgTupSI5Gv-8" vertex="1">
          <mxGeometry width="135" height="30" as="geometry">
            <mxRectangle width="135" height="30" as="alternateBounds" />
          </mxGeometry>
        </mxCell>
        <mxCell id="vx_Fae2RmIYgTupSI5Gv-10" value="Age" style="shape=partialRectangle;connectable=0;fillColor=none;top=0;left=0;bottom=0;right=0;align=left;spacingLeft=6;overflow=hidden;whiteSpace=wrap;html=1;" parent="vx_Fae2RmIYgTupSI5Gv-8" vertex="1">
          <mxGeometry x="135" width="135" height="30" as="geometry">
            <mxRectangle width="135" height="30" as="alternateBounds" />
          </mxGeometry>
        </mxCell>
        <mxCell id="vx_Fae2RmIYgTupSI5Gv-11" value="" style="shape=tableRow;horizontal=0;startSize=0;swimlaneHead=0;swimlaneBody=0;fillColor=none;collapsible=0;dropTarget=0;points=[[0,0.5],[1,0.5]];portConstraint=eastwest;top=0;left=0;right=0;bottom=0;" parent="vx_Fae2RmIYgTupSI5Gv-1" vertex="1">
          <mxGeometry y="120" width="270" height="30" as="geometry" />
        </mxCell>
        <mxCell id="vx_Fae2RmIYgTupSI5Gv-12" value="varchar2(20)" style="shape=partialRectangle;connectable=0;fillColor=none;top=0;left=0;bottom=0;right=0;editable=1;overflow=hidden;whiteSpace=wrap;html=1;" parent="vx_Fae2RmIYgTupSI5Gv-11" vertex="1">
          <mxGeometry width="135" height="30" as="geometry">
            <mxRectangle width="135" height="30" as="alternateBounds" />
          </mxGeometry>
        </mxCell>
        <mxCell id="vx_Fae2RmIYgTupSI5Gv-13" value="First_Name" style="shape=partialRectangle;connectable=0;fillColor=none;top=0;left=0;bottom=0;right=0;align=left;spacingLeft=6;overflow=hidden;whiteSpace=wrap;html=1;" parent="vx_Fae2RmIYgTupSI5Gv-11" vertex="1">
          <mxGeometry x="135" width="135" height="30" as="geometry">
            <mxRectangle width="135" height="30" as="alternateBounds" />
          </mxGeometry>
        </mxCell>
        <mxCell id="vx_Fae2RmIYgTupSI5Gv-17" value="" style="shape=tableRow;horizontal=0;startSize=0;swimlaneHead=0;swimlaneBody=0;fillColor=none;collapsible=0;dropTarget=0;points=[[0,0.5],[1,0.5]];portConstraint=eastwest;top=0;left=0;right=0;bottom=0;" parent="vx_Fae2RmIYgTupSI5Gv-1" vertex="1">
          <mxGeometry y="150" width="270" height="30" as="geometry" />
        </mxCell>
        <mxCell id="vx_Fae2RmIYgTupSI5Gv-18" value="varchar2(20)" style="shape=partialRectangle;connectable=0;fillColor=none;top=0;left=0;bottom=0;right=0;editable=1;overflow=hidden;whiteSpace=wrap;html=1;" parent="vx_Fae2RmIYgTupSI5Gv-17" vertex="1">
          <mxGeometry width="135" height="30" as="geometry">
            <mxRectangle width="135" height="30" as="alternateBounds" />
          </mxGeometry>
        </mxCell>
        <mxCell id="vx_Fae2RmIYgTupSI5Gv-19" value="Last_Name" style="shape=partialRectangle;connectable=0;fillColor=none;top=0;left=0;bottom=0;right=0;align=left;spacingLeft=6;overflow=hidden;whiteSpace=wrap;html=1;" parent="vx_Fae2RmIYgTupSI5Gv-17" vertex="1">
          <mxGeometry x="135" width="135" height="30" as="geometry">
            <mxRectangle width="135" height="30" as="alternateBounds" />
          </mxGeometry>
        </mxCell>
        <mxCell id="vx_Fae2RmIYgTupSI5Gv-36" value="" style="shape=tableRow;horizontal=0;startSize=0;swimlaneHead=0;swimlaneBody=0;fillColor=#E6FFCC;collapsible=0;dropTarget=0;points=[[0,0.5],[1,0.5]];portConstraint=eastwest;top=0;left=0;right=0;bottom=0;" parent="vx_Fae2RmIYgTupSI5Gv-1" vertex="1">
          <mxGeometry y="180" width="270" height="30" as="geometry" />
        </mxCell>
        <mxCell id="vx_Fae2RmIYgTupSI5Gv-37" value="FK" style="shape=partialRectangle;connectable=0;fillColor=none;top=0;left=0;bottom=0;right=0;editable=1;overflow=hidden;whiteSpace=wrap;html=1;" parent="vx_Fae2RmIYgTupSI5Gv-36" vertex="1">
          <mxGeometry width="135" height="30" as="geometry">
            <mxRectangle width="135" height="30" as="alternateBounds" />
          </mxGeometry>
        </mxCell>
        <mxCell id="vx_Fae2RmIYgTupSI5Gv-38" value="Branch_id" style="shape=partialRectangle;connectable=0;fillColor=none;top=0;left=0;bottom=0;right=0;align=left;spacingLeft=6;overflow=hidden;whiteSpace=wrap;html=1;" parent="vx_Fae2RmIYgTupSI5Gv-36" vertex="1">
          <mxGeometry x="135" width="135" height="30" as="geometry">
            <mxRectangle width="135" height="30" as="alternateBounds" />
          </mxGeometry>
        </mxCell>
        <mxCell id="vx_Fae2RmIYgTupSI5Gv-39" value="QUALIFICATION" style="shape=table;startSize=30;container=1;collapsible=1;childLayout=tableLayout;fixedRows=1;rowLines=0;fontStyle=1;align=center;resizeLast=1;html=1;fillColor=#CCE5FF;" parent="1" vertex="1">
          <mxGeometry x="550" y="-840" width="270" height="90" as="geometry" />
        </mxCell>
        <mxCell id="vx_Fae2RmIYgTupSI5Gv-40" value="" style="shape=tableRow;horizontal=0;startSize=0;swimlaneHead=0;swimlaneBody=0;fillColor=#FFCCCC;collapsible=0;dropTarget=0;points=[[0,0.5],[1,0.5]];portConstraint=eastwest;top=0;left=0;right=0;bottom=1;" parent="vx_Fae2RmIYgTupSI5Gv-39" vertex="1">
          <mxGeometry y="30" width="270" height="30" as="geometry" />
        </mxCell>
        <mxCell id="vx_Fae2RmIYgTupSI5Gv-41" value="PK, FK1(number(10))" style="shape=partialRectangle;connectable=0;fillColor=none;top=0;left=0;bottom=0;right=0;fontStyle=1;overflow=hidden;whiteSpace=wrap;html=1;" parent="vx_Fae2RmIYgTupSI5Gv-40" vertex="1">
          <mxGeometry width="140" height="30" as="geometry">
            <mxRectangle width="140" height="30" as="alternateBounds" />
          </mxGeometry>
        </mxCell>
        <mxCell id="vx_Fae2RmIYgTupSI5Gv-42" value="Employee_id" style="shape=partialRectangle;connectable=0;fillColor=none;top=0;left=0;bottom=0;right=0;align=left;spacingLeft=6;fontStyle=5;overflow=hidden;whiteSpace=wrap;html=1;" parent="vx_Fae2RmIYgTupSI5Gv-40" vertex="1">
          <mxGeometry x="140" width="130" height="30" as="geometry">
            <mxRectangle width="130" height="30" as="alternateBounds" />
          </mxGeometry>
        </mxCell>
        <mxCell id="vx_Fae2RmIYgTupSI5Gv-43" value="" style="shape=tableRow;horizontal=0;startSize=0;swimlaneHead=0;swimlaneBody=0;fillColor=#FFCCCC;collapsible=0;dropTarget=0;points=[[0,0.5],[1,0.5]];portConstraint=eastwest;top=0;left=0;right=0;bottom=0;" parent="vx_Fae2RmIYgTupSI5Gv-39" vertex="1">
          <mxGeometry y="60" width="270" height="30" as="geometry" />
        </mxCell>
        <mxCell id="vx_Fae2RmIYgTupSI5Gv-44" value="&lt;b&gt;PK, FK2number(10)&lt;/b&gt;" style="shape=partialRectangle;connectable=0;fillColor=none;top=0;left=0;bottom=0;right=0;editable=1;overflow=hidden;whiteSpace=wrap;html=1;" parent="vx_Fae2RmIYgTupSI5Gv-43" vertex="1">
          <mxGeometry width="140" height="30" as="geometry">
            <mxRectangle width="140" height="30" as="alternateBounds" />
          </mxGeometry>
        </mxCell>
        <mxCell id="vx_Fae2RmIYgTupSI5Gv-45" value="&lt;u&gt;Qualification_id&lt;/u&gt;" style="shape=partialRectangle;connectable=0;fillColor=none;top=0;left=0;bottom=0;right=0;align=left;spacingLeft=6;overflow=hidden;whiteSpace=wrap;html=1;" parent="vx_Fae2RmIYgTupSI5Gv-43" vertex="1">
          <mxGeometry x="140" width="130" height="30" as="geometry">
            <mxRectangle width="130" height="30" as="alternateBounds" />
          </mxGeometry>
        </mxCell>
        <mxCell id="vx_Fae2RmIYgTupSI5Gv-52" value="QUALIFICATION_DETAILS" style="shape=table;startSize=30;container=1;collapsible=1;childLayout=tableLayout;fixedRows=1;rowLines=0;fontStyle=1;align=center;resizeLast=1;html=1;fillColor=#CCE5FF;" parent="1" vertex="1">
          <mxGeometry x="550" y="-730" width="270" height="90" as="geometry" />
        </mxCell>
        <mxCell id="vx_Fae2RmIYgTupSI5Gv-53" value="" style="shape=tableRow;horizontal=0;startSize=0;swimlaneHead=0;swimlaneBody=0;fillColor=#FFCCCC;collapsible=0;dropTarget=0;points=[[0,0.5],[1,0.5]];portConstraint=eastwest;top=0;left=0;right=0;bottom=1;" parent="vx_Fae2RmIYgTupSI5Gv-52" vertex="1">
          <mxGeometry y="30" width="270" height="30" as="geometry" />
        </mxCell>
        <mxCell id="vx_Fae2RmIYgTupSI5Gv-54" value="PK(number(10))" style="shape=partialRectangle;connectable=0;fillColor=none;top=0;left=0;bottom=0;right=0;fontStyle=1;overflow=hidden;whiteSpace=wrap;html=1;" parent="vx_Fae2RmIYgTupSI5Gv-53" vertex="1">
          <mxGeometry width="140" height="30" as="geometry">
            <mxRectangle width="140" height="30" as="alternateBounds" />
          </mxGeometry>
        </mxCell>
        <mxCell id="vx_Fae2RmIYgTupSI5Gv-55" value="Qualification_id" style="shape=partialRectangle;connectable=0;fillColor=none;top=0;left=0;bottom=0;right=0;align=left;spacingLeft=6;fontStyle=5;overflow=hidden;whiteSpace=wrap;html=1;" parent="vx_Fae2RmIYgTupSI5Gv-53" vertex="1">
          <mxGeometry x="140" width="130" height="30" as="geometry">
            <mxRectangle width="130" height="30" as="alternateBounds" />
          </mxGeometry>
        </mxCell>
        <mxCell id="vx_Fae2RmIYgTupSI5Gv-56" value="" style="shape=tableRow;horizontal=0;startSize=0;swimlaneHead=0;swimlaneBody=0;fillColor=none;collapsible=0;dropTarget=0;points=[[0,0.5],[1,0.5]];portConstraint=eastwest;top=0;left=0;right=0;bottom=0;" parent="vx_Fae2RmIYgTupSI5Gv-52" vertex="1">
          <mxGeometry y="60" width="270" height="30" as="geometry" />
        </mxCell>
        <mxCell id="vx_Fae2RmIYgTupSI5Gv-57" value="varchar2(20)" style="shape=partialRectangle;connectable=0;fillColor=none;top=0;left=0;bottom=0;right=0;editable=1;overflow=hidden;whiteSpace=wrap;html=1;" parent="vx_Fae2RmIYgTupSI5Gv-56" vertex="1">
          <mxGeometry width="140" height="30" as="geometry">
            <mxRectangle width="140" height="30" as="alternateBounds" />
          </mxGeometry>
        </mxCell>
        <mxCell id="vx_Fae2RmIYgTupSI5Gv-58" value="Qualification_Detail" style="shape=partialRectangle;connectable=0;fillColor=none;top=0;left=0;bottom=0;right=0;align=left;spacingLeft=6;overflow=hidden;whiteSpace=wrap;html=1;" parent="vx_Fae2RmIYgTupSI5Gv-56" vertex="1">
          <mxGeometry x="140" width="130" height="30" as="geometry">
            <mxRectangle width="130" height="30" as="alternateBounds" />
          </mxGeometry>
        </mxCell>
        <mxCell id="vx_Fae2RmIYgTupSI5Gv-62" style="edgeStyle=orthogonalEdgeStyle;rounded=0;orthogonalLoop=1;jettySize=auto;html=1;entryX=1;entryY=0.5;entryDx=0;entryDy=0;" parent="1" source="vx_Fae2RmIYgTupSI5Gv-36" target="toTr2b7wkfYUstjP9SEc-2" edge="1">
          <mxGeometry relative="1" as="geometry">
            <Array as="points">
              <mxPoint x="270" y="-805" />
              <mxPoint x="270" y="-720" />
              <mxPoint x="120" y="-720" />
              <mxPoint x="120" y="-665" />
            </Array>
          </mxGeometry>
        </mxCell>
        <mxCell id="vx_Fae2RmIYgTupSI5Gv-64" style="edgeStyle=orthogonalEdgeStyle;rounded=0;orthogonalLoop=1;jettySize=auto;html=1;entryX=1;entryY=0.5;entryDx=0;entryDy=0;" parent="1" source="vx_Fae2RmIYgTupSI5Gv-53" target="vx_Fae2RmIYgTupSI5Gv-43" edge="1">
          <mxGeometry relative="1" as="geometry">
            <Array as="points">
              <mxPoint x="840" y="-685" />
              <mxPoint x="840" y="-765" />
            </Array>
          </mxGeometry>
        </mxCell>
        <mxCell id="vx_Fae2RmIYgTupSI5Gv-65" style="edgeStyle=orthogonalEdgeStyle;rounded=0;orthogonalLoop=1;jettySize=auto;html=1;entryX=1;entryY=0.5;entryDx=0;entryDy=0;" parent="1" source="3jplrITxi0IfMQACSsrw-2" target="vx_Fae2RmIYgTupSI5Gv-2" edge="1">
          <mxGeometry relative="1" as="geometry">
            <Array as="points">
              <mxPoint x="540" y="-685" />
              <mxPoint x="540" y="-955" />
            </Array>
          </mxGeometry>
        </mxCell>
        <mxCell id="vx_Fae2RmIYgTupSI5Gv-66" style="edgeStyle=orthogonalEdgeStyle;rounded=0;orthogonalLoop=1;jettySize=auto;html=1;exitX=1;exitY=0.5;exitDx=0;exitDy=0;entryX=0.993;entryY=0.2;entryDx=0;entryDy=0;entryPerimeter=0;" parent="1" source="vx_Fae2RmIYgTupSI5Gv-40" target="vx_Fae2RmIYgTupSI5Gv-2" edge="1">
          <mxGeometry relative="1" as="geometry" />
        </mxCell>
      </root>
    </mxGraphModel>
  </diagram>
</mxfile>
